<?xml version="1.0" encoding="UTF-8" standalone="no"?><!DOCTYPE svg PUBLIC "-//W3C//DTD SVG 1.1//EN" "http://www.w3.org/Graphics/SVG/1.1/DTD/svg11.dtd"><svg width="100%" height="100%" viewBox="0 0 675 157" version="1.1" xmlns="http://www.w3.org/2000/svg" xmlns:xlink="http://www.w3.org/1999/xlink" xml:space="preserve" xmlns:serif="http://www.serif.com/" style="fill-rule:evenodd;clip-rule:evenodd;stroke-linejoin:round;stroke-miterlimit:2;"><path d="M317.09,131.362c-8.111,-0 -12.166,-6.348 -12.166,-19.043c-0,-13.048 4.055,-19.572 12.166,-19.572c8.111,-0 12.166,6.524 12.166,19.572c0,12.695 -4.055,19.043 -12.166,19.043Zm-0,-16.425c-0.794,0 -1.433,-0.238 -1.918,-0.714c-0.485,-0.476 -0.727,-1.111 -0.727,-1.904c-0,-0.811 0.242,-1.455 0.727,-1.931c0.485,-0.476 1.124,-0.714 1.918,-0.714c0.793,0 1.432,0.238 1.917,0.714c0.485,0.476 0.728,1.12 0.728,1.931c-0,0.793 -0.238,1.428 -0.714,1.904c-0.476,0.476 -1.12,0.714 -1.931,0.714Zm-0,14.045c6.418,-0 9.627,-5.555 9.627,-16.663c0,-11.461 -3.209,-17.192 -9.627,-17.192c-6.418,0 -9.627,5.731 -9.627,17.192c-0,11.108 3.209,16.663 9.627,16.663Z" style="fill:#453039;fill-rule:nonzero;"/><path d="M348.828,131.362c-8.111,-0 -12.166,-6.348 -12.166,-19.043c-0,-13.048 4.055,-19.572 12.166,-19.572c8.111,-0 12.166,6.524 12.166,19.572c0,12.695 -4.055,19.043 -12.166,19.043Zm0,-16.425c-0.793,0 -1.433,-0.238 -1.917,-0.714c-0.485,-0.476 -0.728,-1.111 -0.728,-1.904c0,-0.811 0.243,-1.455 0.728,-1.931c0.484,-0.476 1.124,-0.714 1.917,-0.714c0.794,0 1.433,0.238 1.918,0.714c0.485,0.476 0.727,1.12 0.727,1.931c-0,0.793 -0.238,1.428 -0.714,1.904c-0.476,0.476 -1.12,0.714 -1.931,0.714Zm0,14.045c6.418,-0 9.627,-5.555 9.627,-16.663c0,-11.461 -3.209,-17.192 -9.627,-17.192c-6.418,0 -9.627,5.731 -9.627,17.192c-0,11.108 3.209,16.663 9.627,16.663Z" style="fill:#453039;fill-rule:nonzero;"/><g><g><path d="M305.884,75.605l-11.192,0.071l-3.057,0.021c-5.169,0.035 -10.34,0.071 -15.509,0.086c-9.898,0.035 -19.806,0.04 -29.713,0.045l-2.794,0c-15.536,0.009 -36.811,0.022 -56.638,0.173c-9.826,0.082 -19.832,0.21 -29.737,0.38l-5.613,0.107c-3.233,0.066 -6.257,0.122 -9.289,0.172c-4.96,0.082 -9.931,0.147 -14.903,0.203c-15.375,0.172 -30.956,0.233 -46.271,0.271c-0.03,-0.178 -0.2,-0.326 -0.466,-0.459c-0.06,-0.033 -0.119,-0.063 -0.182,-0.094c-0.048,-0.027 -0.099,-0.056 -0.147,-0.084c-0.095,-0.072 -0.188,-0.144 -0.268,-0.22c-0.446,-0.531 -0.721,-1.095 -0.933,-1.654c-0.065,-0.224 -0.134,-0.445 -0.2,-0.667c0.009,0.022 0.015,0.044 0.024,0.066c-0.069,-0.253 -0.128,-0.507 -0.152,-0.76c-0.021,-0.231 0.027,-0.459 0.095,-0.69c0.045,-0.114 0.108,-0.225 0.162,-0.34c0.104,-0.192 -0.129,-0.39 -0.571,-0.441c-0.072,-0.008 -0.143,-0.012 -0.212,-0.012c-0.365,0 -0.717,0.104 -0.813,0.261c-0.17,0.305 -0.394,0.596 -0.654,0.887c-0.371,0.363 -0.747,0.723 -1.049,1.095c-0.152,0.173 -0.209,0.355 -0.281,0.538c-0.092,0.258 -0.14,0.511 -0.128,0.771c0.012,0.466 0.385,0.913 0.887,1.319c0.209,0.167 0.538,0.314 0.807,0.466c0.018,0.01 0.045,0.018 0.066,0.028c-2.504,0.006 -5.026,0.012 -7.508,0.017l-0.437,0.002l-0.43,-0c0.284,-0.453 0.571,-0.867 0.753,-1.283c0.206,-0.452 0.221,-0.91 0.209,-1.26c-0.012,-0.425 -0.206,-0.848 -0.373,-1.17c-0.201,-0.37 -0.55,-0.723 -0.888,-1.052c-0.744,-0.715 -1.906,-1.331 -2.934,-1.853c-0.523,-0.266 -1.096,-0.514 -1.673,-0.764l-0.313,-0.136c-0.852,-0.365 -1.703,-0.729 -2.546,-1.101c-0.197,-0.085 -0.445,-0.131 -0.723,-0.131c-0.284,0 -0.538,0.047 -0.723,0.131c-0.123,0.054 -0.212,0.124 -0.263,0.208c-0.335,0.039 -0.586,0.188 -0.586,0.353l0.003,0.644c0,0.537 -0.003,1.079 0.057,1.617c0.084,0.84 0.287,1.672 0.607,2.472c0.34,0.865 1.31,2.68 2.227,3.342c0.457,0.331 0.745,-0.386 1.516,-0.078l0.236,0.074c-2.494,0.005 -4.992,0.015 -7.475,0.026l-1.12,0.005l-1.028,-0c0.125,-0.008 0.191,-0.083 0.257,-0.157c0.119,-0.163 0.167,-0.291 0.215,-0.416c0.131,-0.362 0.155,-0.545 0.167,-0.733c0,-0.157 -0.051,-0.314 -0.104,-0.471c-0.296,-0.748 -0.813,-1.205 -1.091,-1.452c-0.37,-0.361 -0.89,-0.663 -1.533,-1.021c-0.409,-0.224 -0.878,-0.433 -1.344,-0.635l-0.293,-0.131c-0.293,-0.127 -0.585,-0.249 -0.887,-0.366c-0.329,-0.122 -0.666,-0.229 -1.007,-0.335c-0.454,-0.139 -0.78,-0.224 -1.07,-0.296c-0.744,-0.182 -1.234,-0.299 -1.724,-0.41c-0.887,-0.203 -1.798,-0.376 -2.709,-0.548c-0.156,-0.031 -0.287,-0.052 -0.434,-0.052c-0.015,-0 -0.298,0.052 -0.298,0.058c-0.015,-0.001 -0.027,-0.001 -0.039,-0.001c-0.135,-0 -0.299,0.058 -0.392,0.138c-0.164,0.111 -0.158,0.27 0.015,0.383c-0.119,0.867 -0.095,1.623 0.066,2.306c0.087,0.357 0.23,0.69 0.445,1.017c0.197,0.367 0.583,0.731 0.971,1.067c0.652,0.592 1.646,1.154 2.877,1.626c0.586,0.209 1.184,0.392 1.826,0.55l-3.113,-0.09l-3.152,0.005c0.125,-0.087 -0.021,-0.248 -0.362,-0.411c-0.624,-0.303 -1.383,-0.575 -2.456,-0.884c-0.878,-0.279 -1.903,-0.46 -2.805,-0.62c-1.903,-0.335 -3.741,-0.498 -5.614,-0.498c-1.031,0.005 -1.802,0.07 -2.48,0.127c-1.21,0.101 -2.169,0.281 -2.785,0.406c-1.837,0.364 -3.525,0.896 -5.01,1.366l-0.875,0.279c-0.281,0.087 -0.463,0.214 -0.526,0.369c-0.144,0.144 -0.06,0.331 0.206,0.452c1.539,0.694 3.098,1.208 4.768,1.574c1.733,0.398 3.78,0.635 6.08,0.706c0.35,0.011 0.655,0.021 0.971,0.021c1.632,0 3.362,-0.119 5.145,-0.355c0.917,-0.115 1.888,-0.296 3.051,-0.569c0.782,-0.18 1.613,-0.432 2.689,-0.818l4.998,-0.012c-0.233,0.002 -0.463,0.072 -0.81,0.19c-1.239,0.424 -2.321,0.95 -3.403,1.656c-1.514,0.986 -2.342,2.138 -3.074,3.156l-0.535,0.731c-0.278,0.071 -0.457,0.218 -0.457,0.374c0,0.258 0.517,0.484 1.103,0.484c1.021,-0.015 1.876,-0.057 2.692,-0.132c1.057,-0.09 2.031,-0.268 2.76,-0.412c0.891,-0.178 1.691,-0.428 2.223,-0.594c0.795,-0.268 1.509,-0.56 2.175,-0.895c1.3,-0.65 2.325,-1.375 3.051,-2.153c0.4,-0.411 0.702,-0.826 0.923,-1.27c0.092,-0.162 0.14,-0.33 0.188,-0.498l0.057,-0.173c0.048,-0.158 0.071,-0.321 0.071,-0.49c2.456,0.054 4.987,0.074 7.533,0.09l1.61,0.021l0.305,-0l-0.673,0.189c-0.579,0.237 -1.132,0.544 -1.688,0.943c-0.567,0.396 -0.953,0.828 -1.252,1.199c-0.717,0.883 -1.075,1.811 -1.425,2.71c-0.304,0.787 -0.618,1.601 -1.165,2.376c-0.075,0.095 -0.048,0.19 0.072,0.28c0.11,0.09 0.305,0.157 0.52,0.177l0.499,-0.019l0.37,0.01c0.798,-0.067 1.64,-0.175 2.51,-0.32c0.836,-0.134 1.664,-0.321 2.527,-0.574c0.804,-0.227 1.557,-0.493 2.304,-0.813c0.642,-0.274 1.258,-0.592 1.987,-1.031c1.186,-0.712 2.055,-1.547 2.584,-2.479c0.514,-0.888 0.481,-1.797 -0.092,-2.629l0.388,0.038l5.751,0.049c-0.403,0.268 -0.735,0.555 -0.938,0.873c-0.14,0.233 -0.176,0.486 -0.221,0.725c-0.048,0.234 -0.048,0.461 -0.024,0.695c0.024,0.244 0.036,0.487 0.093,0.725c0.048,0.248 0.104,0.492 0.152,0.74c0.036,0.198 0.35,0.36 0.828,0.36c0.442,-0 0.863,-0.162 0.839,-0.36c-0.021,-0.175 -0.024,-0.341 0.015,-0.514c0.108,-0.25 0.263,-0.492 0.469,-0.732c0.215,-0.178 0.451,-0.349 0.72,-0.515c0.428,-0.223 0.885,-0.431 1.354,-0.641c0.281,-0.128 0.57,-0.254 0.839,-0.386c0.329,-0.166 0.613,-0.331 0.965,-0.483c0.153,-0.045 0.305,-0.088 0.461,-0.126c0.304,-0.079 0.519,-0.196 0.687,-0.322c5.939,0.042 11.873,0.085 17.789,0.116c7.027,0.04 14.063,0.066 21.09,0.066c2.895,-0 5.799,-0 8.694,-0.01c4.972,-0.021 9.943,-0.046 14.915,-0.096c2.755,-0.021 5.521,-0.056 8.276,-0.091l6.618,-0.077c9.539,-0.097 19.871,-0.141 32.515,-0.141c9.139,-0 18.288,0.026 27.427,0.055l3.911,0.011l3.851,0.015l3.852,0.011c7.714,0.026 15.428,0.045 23.142,0.045c9.035,0 16.947,-0.026 24.183,-0.082c10.523,-0.066 18.769,-0.148 27.335,-0.35c0.824,-0.021 1.482,-0.138 2.013,-0.358c0.532,-0.237 0.837,-0.555 0.837,-0.871c-0.009,-0.677 -1.294,-1.244 -2.817,-1.244Z" style="fill:#463237;fill-opacity:0.67;"/></g><g><path d="M359.468,75.591l8.832,0.085l3.056,0.021c5.169,0.035 10.341,0.071 15.51,0.086c9.898,0.035 19.805,0.04 29.712,0.045l2.791,0c15.536,0.009 36.812,0.022 56.638,0.173c9.827,0.082 19.833,0.21 29.737,0.38l5.614,0.107c3.233,0.066 6.256,0.122 9.289,0.172c4.959,0.082 9.931,0.147 14.903,0.203c15.374,0.172 30.955,0.233 46.27,0.271c0.03,-0.178 0.201,-0.326 0.466,-0.459c0.06,-0.033 0.12,-0.063 0.183,-0.094c0.047,-0.027 0.098,-0.056 0.146,-0.084c0.096,-0.072 0.188,-0.144 0.269,-0.22c0.445,-0.531 0.72,-1.095 0.932,-1.654c0.066,-0.224 0.135,-0.445 0.2,-0.667c-0.009,0.022 -0.018,0.044 -0.024,0.066c0.069,-0.253 0.129,-0.507 0.153,-0.76c0.021,-0.231 -0.027,-0.459 -0.096,-0.69c-0.045,-0.114 -0.107,-0.225 -0.161,-0.34c-0.105,-0.192 0.128,-0.39 0.571,-0.441c0.071,-0.008 0.143,-0.012 0.215,-0.012c0.364,0 0.717,0.104 0.812,0.261c0.171,0.305 0.395,0.596 0.655,0.887c0.37,0.363 0.747,0.723 1.051,1.095c0.153,0.173 0.209,0.355 0.281,0.538c0.093,0.258 0.141,0.511 0.129,0.771c-0.012,0.466 -0.386,0.913 -0.888,1.319c-0.209,0.167 -0.538,0.314 -0.806,0.466c-0.018,0.01 -0.045,0.018 -0.066,0.028c2.504,0.006 5.025,0.012 7.508,0.017l0.436,0.002l0.43,-0c-0.283,-0.453 -0.57,-0.867 -0.752,-1.283c-0.207,-0.452 -0.222,-0.91 -0.21,-1.26c0.012,-0.425 0.207,-0.848 0.374,-1.17c0.2,-0.37 0.55,-0.723 0.89,-1.052c0.744,-0.715 1.903,-1.331 2.934,-1.853c0.523,-0.266 1.097,-0.514 1.673,-0.764l0.314,-0.136c0.851,-0.365 1.703,-0.729 2.545,-1.101c0.198,-0.085 0.446,-0.131 0.724,-0.131c0.283,0 0.537,0.047 0.723,0.131c0.122,0.054 0.212,0.124 0.262,0.208c0.335,0.039 0.586,0.188 0.586,0.353l-0.003,0.644c0,0.537 0.003,1.079 -0.057,1.617c-0.083,0.84 -0.287,1.672 -0.606,2.472c-0.341,0.865 -0.977,1.64 -1.894,2.302c-0.458,0.331 -1.079,0.654 -1.85,0.962l-0.236,0.074c2.495,0.005 4.99,0.015 7.475,0.026l1.121,0.005l1.028,-0c-0.129,-0.008 -0.192,-0.083 -0.254,-0.157c-0.123,-0.163 -0.171,-0.291 -0.215,-0.416c-0.132,-0.362 -0.156,-0.545 -0.168,-0.733c0,-0.157 0.051,-0.314 0.105,-0.471c0.293,-0.748 0.812,-1.205 1.09,-1.452c0.371,-0.361 0.891,-0.663 1.533,-1.021c0.409,-0.224 0.878,-0.433 1.344,-0.635l0.293,-0.131c0.293,-0.127 0.586,-0.249 0.888,-0.366c0.328,-0.122 0.666,-0.229 1.006,-0.335c0.455,-0.139 0.78,-0.224 1.07,-0.296c0.744,-0.182 1.234,-0.299 1.724,-0.41c0.887,-0.203 1.799,-0.376 2.71,-0.548c0.155,-0.031 0.287,-0.052 0.433,-0.052c0.015,-0 0.299,0.052 0.299,0.058c0.003,-0.001 0.018,-0.001 0.03,-0.001c0.134,-0 0.299,0.058 0.391,0.138c0.164,0.111 0.158,0.27 -0.015,0.383c0.12,0.867 0.096,1.623 -0.066,2.306c-0.086,0.357 -0.23,0.69 -0.445,1.017c-0.197,0.367 -0.582,0.731 -0.971,1.067c-0.651,0.592 -1.646,1.154 -2.877,1.626c-0.585,0.209 -1.183,0.392 -1.825,0.55l3.113,-0.09l3.152,0.005c-0.126,-0.087 0.021,-0.248 0.361,-0.411c0.625,-0.303 1.384,-0.575 2.456,-0.884c0.879,-0.279 1.903,-0.46 2.806,-0.62c1.903,-0.335 3.74,-0.498 5.614,-0.498c1.03,0.005 1.801,0.07 2.479,0.127c1.211,0.101 2.17,0.281 2.785,0.406c1.837,0.364 3.523,0.896 5.01,1.366l0.876,0.279c0.281,0.087 0.463,0.214 0.526,0.369c0.143,0.144 0.059,0.331 -0.206,0.452c-1.539,0.694 -3.099,1.208 -4.769,1.574c-1.733,0.398 -3.779,0.635 -6.08,0.706c-0.349,0.011 -0.654,0.021 -0.971,0.021c-1.631,0 -3.361,-0.119 -5.145,-0.355c-0.917,-0.115 -1.888,-0.296 -3.05,-0.569c-0.783,-0.18 -1.614,-0.432 -2.689,-0.818l-4.999,-0.012c0.233,0.002 0.463,0.072 0.81,0.19c1.24,0.424 2.322,0.95 3.403,1.656c1.515,0.986 2.342,2.138 3.074,3.156l0.538,0.731c0.278,0.071 0.457,0.218 0.457,0.374c0,0.258 -0.517,0.484 -1.102,0.484c-1.022,-0.015 -1.876,-0.057 -2.689,-0.132c-1.058,-0.09 -2.032,-0.268 -2.761,-0.412c-0.89,-0.178 -1.691,-0.428 -2.223,-0.594c-0.794,-0.268 -1.505,-0.56 -2.175,-0.895c-1.299,-0.65 -2.324,-1.375 -3.05,-2.153c-0.4,-0.411 -0.702,-0.826 -0.923,-1.27c-0.093,-0.162 -0.141,-0.33 -0.189,-0.498l-0.059,-0.173c-0.048,-0.158 -0.069,-0.321 -0.069,-0.49c-2.456,0.054 -4.99,0.074 -7.532,0.09l-1.61,0.021l-0.305,-0l0.672,0.189c0.58,0.237 1.132,0.544 1.688,0.943c0.568,0.396 0.953,0.828 1.252,1.199c0.717,0.883 1.076,1.811 1.425,2.71c0.305,0.787 0.619,1.601 1.165,2.376c0.075,0.095 0.048,0.19 -0.071,0.28c-0.111,0.09 -0.305,0.157 -0.52,0.177l-0.499,-0.019l-0.371,0.01c-0.797,-0.067 -1.64,-0.175 -2.506,-0.32c-0.837,-0.134 -1.665,-0.321 -2.528,-0.574c-0.804,-0.227 -1.557,-0.493 -2.304,-0.813c-0.642,-0.274 -1.254,-0.592 -1.986,-1.031c-1.186,-0.712 -2.056,-1.547 -2.585,-2.479c-0.514,-0.888 -0.481,-1.797 0.093,-2.629l-0.389,0.038l-5.751,0.049c0.403,0.268 0.735,0.555 0.938,0.873c0.141,0.233 0.177,0.486 0.221,0.725c0.048,0.234 0.048,0.461 0.024,0.695c-0.024,0.244 -0.036,0.487 -0.092,0.725c-0.048,0.248 -0.105,0.492 -0.153,0.74c-0.036,0.198 -0.349,0.36 -0.827,0.36c-0.443,-0 -0.864,-0.162 -0.84,-0.36c0.021,-0.175 0.024,-0.341 -0.015,-0.514c-0.107,-0.25 -0.263,-0.492 -0.469,-0.732c-0.215,-0.178 -0.451,-0.349 -0.717,-0.515c-0.427,-0.223 -0.887,-0.431 -1.353,-0.641c-0.281,-0.128 -0.571,-0.254 -0.84,-0.386c-0.329,-0.166 -0.612,-0.331 -0.965,-0.483c-0.152,-0.045 -0.305,-0.088 -0.46,-0.126c-0.305,-0.079 -0.517,-0.196 -0.687,-0.322c-5.94,0.042 -11.873,0.085 -17.789,0.116c-7.027,0.04 -14.063,0.066 -21.09,0.066c-2.896,-0 -5.8,-0 -8.695,-0.01c-4.971,-0.021 -9.943,-0.046 -14.914,-0.096c-2.755,-0.021 -5.522,-0.056 -8.276,-0.091l-6.618,-0.077c-9.54,-0.097 -19.872,-0.141 -32.516,-0.141c-9.139,-0 -18.287,0.026 -27.427,0.055l-3.911,0.011l-3.851,0.015l-3.851,0.011c-7.714,0.026 -15.429,0.045 -23.143,0.045c-9.035,0 -16.946,-0.026 -24.183,-0.082c-10.522,-0.066 -16.045,-0.12 -24.611,-0.322c-0.825,-0.021 -2.637,-0.152 -2.719,-1.194c-0.049,-0.609 0.787,-1.321 2.311,-1.321Z" style="fill:#463237;fill-opacity:0.64;"/><circle cx="348.828" cy="76.246" r="3.459" style="fill:#ff3ee0;"/><circle cx="317.09" cy="76.246" r="3.459" style="fill:#ff3ee0;"/><circle cx="348.828" cy="112.054" r="3.459" style="fill:#ff3ee0;"/><circle cx="317.09" cy="112.054" r="3.459" style="fill:#ff3ee0;"/></g></g><path d="M265.324,56.362c-5.149,-0 -9.134,-1.688 -11.955,-5.065c-2.821,-3.377 -4.232,-8.142 -4.232,-14.295c0,-6.119 1.393,-10.858 4.179,-14.217c2.786,-3.359 6.718,-5.038 11.796,-5.038c2.398,-0 4.527,0.357 6.388,1.071c1.86,0.714 3.301,1.724 4.324,3.029l-1.825,1.798c-1.023,-1.128 -2.279,-1.997 -3.769,-2.605c-1.49,-0.608 -3.09,-0.913 -4.8,-0.913c-4.356,0 -7.737,1.451 -10.143,4.351c-2.407,2.901 -3.611,6.987 -3.611,12.259c0,5.466 1.248,9.707 3.743,12.722c2.495,3.015 6.008,4.523 10.54,4.523c1.639,-0 3.09,-0.164 4.35,-0.49c1.261,-0.326 2.297,-0.604 3.108,-0.833l1.534,2.116c-0.74,0.229 -1.97,0.551 -3.689,0.965c-1.72,0.415 -3.699,0.622 -5.938,0.622Zm7.141,-1.587l0,-16.398l2.486,-0l0,16.398l-2.486,-0Zm-9.574,-14.071l-0,-2.327l11.901,-0l0,2.327l-11.901,0Z" style="fill:#453039;fill-rule:nonzero;"/><path d="M291.164,43.772l-1.64,-8.781l1.852,0c0.811,-5.148 3.658,-7.723 8.543,-7.723c3.05,0 5.258,0.829 6.625,2.487c1.366,1.657 2.05,4.337 2.05,8.04l-2.539,0c-0,-2.856 -0.494,-4.919 -1.481,-6.189c-0.988,-1.269 -2.575,-1.904 -4.761,-1.904c-2.892,-0 -5.056,1.221 -6.493,3.663c-1.437,2.442 -2.156,5.911 -2.156,10.407Zm-9.654,12.061l0,-2.38l18.091,-0l0,2.38l-18.091,-0Zm7.168,-0l-0,-28.036l1.957,0l0.529,8.041l0,19.995l-2.486,-0Zm-6.11,-25.655l0,-2.381l7.168,0l-0,2.381l-7.168,-0Z" style="fill:#453039;fill-rule:nonzero;"/><path d="M326.367,56.362c-3.667,-0 -6.524,-1.27 -8.569,-3.809c-2.046,-2.539 -3.068,-6.118 -3.068,-10.738c-0,-4.637 1.022,-8.221 3.068,-10.751c2.045,-2.53 4.902,-3.796 8.569,-3.796c3.685,0 6.546,1.266 8.583,3.796c2.036,2.53 3.055,6.114 3.055,10.751c-0,4.62 -1.019,8.199 -3.055,10.738c-2.037,2.539 -4.898,3.809 -8.583,3.809Zm0,-2.433c2.892,-0 5.131,-1.058 6.718,-3.174c1.587,-2.116 2.38,-5.096 2.38,-8.94c0,-3.861 -0.793,-6.846 -2.38,-8.953c-1.587,-2.107 -3.826,-3.16 -6.718,-3.16c-2.892,-0 -5.131,1.053 -6.718,3.16c-1.587,2.107 -2.38,5.092 -2.38,8.953c-0,3.844 0.793,6.824 2.38,8.94c1.587,2.116 3.826,3.174 6.718,3.174Z" style="fill:#453039;fill-rule:nonzero;"/><path d="M356.677,56.362c-3.174,-0 -5.624,-0.877 -7.352,-2.632c-1.728,-1.754 -2.592,-4.227 -2.592,-7.419l-0,-18.514l2.486,0l-0,18.514c-0,2.451 0.679,4.334 2.036,5.647c1.358,1.314 3.253,1.971 5.687,1.971c2.856,-0 5.016,-0.847 6.48,-2.539c1.463,-1.693 2.195,-4.532 2.195,-8.517l1.428,7.564l-1.587,0c-0.546,1.869 -1.582,3.324 -3.108,4.364c-1.525,1.041 -3.416,1.561 -5.673,1.561Zm9.416,-0.265l-0.265,-6.718l-0.211,-4.919l2.486,0l0,9.442l3.862,0.265l-0,1.666l-5.872,0.264Zm-0.476,-8.199l-0,-20.101l2.486,0l0,21.159l-2.486,-1.058Z" style="fill:#453039;fill-rule:nonzero;"/><path d="M379.053,67.999l-0,-40.202l1.957,0l0.529,6.718l-0,33.484l-2.486,0Zm12.298,-11.637c-2.838,-0 -5.029,-0.639 -6.572,-1.918c-1.543,-1.278 -2.544,-3.019 -3.002,-5.223l-2.142,-0l1.904,-7.247c-0,3.932 0.785,6.907 2.354,8.926c1.569,2.019 3.879,3.029 6.929,3.029c3.015,-0 5.299,-1.005 6.851,-3.016c1.551,-2.01 2.327,-4.954 2.327,-8.833c0,-4.073 -0.771,-7.155 -2.314,-9.244c-1.543,-2.09 -3.813,-3.134 -6.811,-3.134c-3.068,-0 -5.391,1.009 -6.969,3.028c-1.578,2.019 -2.367,5.003 -2.367,8.953l-1.64,-7.591l1.851,0c0.441,-2.257 1.46,-3.958 3.055,-5.104c1.596,-1.146 3.725,-1.72 6.388,-1.72c3.738,0 6.563,1.252 8.476,3.756c1.914,2.504 2.87,6.189 2.87,11.056c0,4.69 -0.943,8.243 -2.83,10.658c-1.887,2.416 -4.673,3.624 -8.358,3.624Z" style="fill:#463237;fill-rule:nonzero;"/><path d="M30.996,130.833l-0,-37.557l2.486,-0l-0,37.557l-2.486,-0Zm-10.289,-0l0,-2.38l10.818,-0l-0,2.38l-10.818,-0Zm12.193,-0l-0,-2.38l9.865,-0l0,2.38l-9.865,-0Zm-11.664,-31.95l0,-2.433l9.76,-3.174l-0,2.539l-9.76,3.068Z" style="fill:#453039;fill-rule:nonzero;"/><path d="M62.734,130.833l-0,-37.557l2.486,-0l0,37.557l-2.486,-0Zm-10.289,-0l0,-2.38l10.818,-0l-0,2.38l-10.818,-0Zm12.193,-0l0,-2.38l9.866,-0l-0,2.38l-9.866,-0Zm-11.664,-31.95l0,-2.433l9.76,-3.174l-0,2.539l-9.76,3.068Z" style="fill:#463237;fill-rule:nonzero;"/><path d="M94.922,131.362c-8.111,-0 -12.166,-6.348 -12.166,-19.043c-0,-13.048 4.055,-19.572 12.166,-19.572c8.111,-0 12.166,6.524 12.166,19.572c0,12.695 -4.055,19.043 -12.166,19.043Zm-0,-16.425c-0.794,0 -1.433,-0.238 -1.918,-0.714c-0.485,-0.476 -0.727,-1.111 -0.727,-1.904c0,-0.811 0.242,-1.455 0.727,-1.931c0.485,-0.476 1.124,-0.714 1.918,-0.714c0.793,0 1.433,0.238 1.917,0.714c0.485,0.476 0.728,1.12 0.728,1.931c-0,0.793 -0.238,1.428 -0.714,1.904c-0.476,0.476 -1.12,0.714 -1.931,0.714Zm-0,14.045c6.418,-0 9.627,-5.555 9.627,-16.663c0,-11.461 -3.209,-17.192 -9.627,-17.192c-6.418,0 -9.627,5.731 -9.627,17.192c-0,11.108 3.209,16.663 9.627,16.663Z" style="fill:#453039;fill-rule:nonzero;"/><path d="M126.66,131.362c-8.111,-0 -12.166,-6.348 -12.166,-19.043c-0,-13.048 4.055,-19.572 12.166,-19.572c8.111,-0 12.166,6.524 12.166,19.572c0,12.695 -4.055,19.043 -12.166,19.043Zm0,-16.425c-0.793,0 -1.432,-0.238 -1.917,-0.714c-0.485,-0.476 -0.728,-1.111 -0.728,-1.904c0,-0.811 0.243,-1.455 0.728,-1.931c0.485,-0.476 1.124,-0.714 1.917,-0.714c0.794,0 1.433,0.238 1.918,0.714c0.485,0.476 0.727,1.12 0.727,1.931c0,0.793 -0.238,1.428 -0.714,1.904c-0.476,0.476 -1.12,0.714 -1.931,0.714Zm0,14.045c6.418,-0 9.627,-5.555 9.627,-16.663c0,-11.461 -3.209,-17.192 -9.627,-17.192c-6.418,0 -9.627,5.731 -9.627,17.192c-0,11.108 3.209,16.663 9.627,16.663Z" style="fill:#453039;fill-rule:nonzero;"/><path d="M158.398,131.362c-8.11,-0 -12.166,-6.348 -12.166,-19.043c0,-13.048 4.056,-19.572 12.166,-19.572c8.111,-0 12.167,6.524 12.167,19.572c-0,12.695 -4.056,19.043 -12.167,19.043Zm0,-16.425c-0.793,0 -1.432,-0.238 -1.917,-0.714c-0.485,-0.476 -0.727,-1.111 -0.727,-1.904c-0,-0.811 0.242,-1.455 0.727,-1.931c0.485,-0.476 1.124,-0.714 1.917,-0.714c0.794,0 1.433,0.238 1.918,0.714c0.485,0.476 0.727,1.12 0.727,1.931c0,0.793 -0.238,1.428 -0.714,1.904c-0.476,0.476 -1.119,0.714 -1.931,0.714Zm0,14.045c6.419,-0 9.628,-5.555 9.628,-16.663c-0,-11.461 -3.209,-17.192 -9.628,-17.192c-6.418,0 -9.627,5.731 -9.627,17.192c0,11.108 3.209,16.663 9.627,16.663Z" style="fill:#453039;fill-rule:nonzero;"/><path d="M189.687,130.833l0,-37.557l2.486,-0l0,37.557l-2.486,-0Zm-10.288,-0l-0,-2.38l10.817,-0l0,2.38l-10.817,-0Zm12.192,-0l0,-2.38l9.866,-0l-0,2.38l-9.866,-0Zm-11.663,-31.95l-0,-2.433l9.759,-3.174l0,2.539l-9.759,3.068Z" style="fill:#453039;fill-rule:nonzero;"/><path d="M253.164,130.833l-0,-37.557l2.486,-0l-0,37.557l-2.486,-0Zm-10.289,-0l0,-2.38l10.818,-0l-0,2.38l-10.818,-0Zm12.193,-0l-0,-2.38l9.865,-0l0,2.38l-9.865,-0Zm-11.664,-31.95l0,-2.433l9.76,-3.174l-0,2.539l-9.76,3.068Z" style="fill:#453039;fill-rule:nonzero;"/><path d="M284.902,130.833l-0,-37.557l2.486,-0l0,37.557l-2.486,-0Zm-10.289,-0l0,-2.38l10.818,-0l-0,2.38l-10.818,-0Zm12.193,-0l0,-2.38l9.866,-0l-0,2.38l-9.866,-0Zm-11.664,-31.95l0,-2.433l9.76,-3.174l-0,2.539l-9.76,3.068Z" style="fill:#453039;fill-rule:nonzero;"/><path d="M380.117,130.833l-0,-37.557l2.486,-0l-0,37.557l-2.486,-0Zm-10.289,-0l0,-2.38l10.818,-0l-0,2.38l-10.818,-0Zm12.193,-0l0,-2.38l9.865,-0l0,2.38l-9.865,-0Zm-11.664,-31.95l0,-2.433l9.76,-3.174l-0,2.539l-9.76,3.068Z" style="fill:#453039;fill-rule:nonzero;"/><path d="M412.305,131.362c-8.111,-0 -12.167,-6.348 -12.167,-19.043c0,-13.048 4.056,-19.572 12.167,-19.572c8.111,-0 12.166,6.524 12.166,19.572c0,12.695 -4.055,19.043 -12.166,19.043Zm-0,-16.425c-0.794,0 -1.433,-0.238 -1.918,-0.714c-0.485,-0.476 -0.727,-1.111 -0.727,-1.904c-0,-0.811 0.242,-1.455 0.727,-1.931c0.485,-0.476 1.124,-0.714 1.918,-0.714c0.793,0 1.432,0.238 1.917,0.714c0.485,0.476 0.728,1.12 0.728,1.931c-0,0.793 -0.238,1.428 -0.715,1.904c-0.476,0.476 -1.119,0.714 -1.93,0.714Zm-0,14.045c6.418,-0 9.627,-5.555 9.627,-16.663c-0,-11.461 -3.209,-17.192 -9.627,-17.192c-6.418,0 -9.628,5.731 -9.628,17.192c0,11.108 3.21,16.663 9.628,16.663Z" style="fill:#453039;fill-rule:nonzero;"/><path d="M475.332,130.833l-0,-37.557l2.486,-0l-0,37.557l-2.486,-0Zm-10.289,-0l0,-2.38l10.818,-0l-0,2.38l-10.818,-0Zm12.193,-0l-0,-2.38l9.865,-0l0,2.38l-9.865,-0Zm-11.664,-31.95l0,-2.433l9.76,-3.174l-0,2.539l-9.76,3.068Z" style="fill:#453039;fill-rule:nonzero;"/><path d="M507.07,130.833l-0,-37.557l2.486,-0l0,37.557l-2.486,-0Zm-10.289,-0l0,-2.38l10.818,-0l-0,2.38l-10.818,-0Zm12.193,-0l0,-2.38l9.866,-0l-0,2.38l-9.866,-0Zm-11.664,-31.95l0,-2.433l9.76,-3.174l-0,2.539l-9.76,3.068Z" style="fill:#453039;fill-rule:nonzero;"/><path d="M539.258,131.362c-8.111,-0 -12.167,-6.348 -12.167,-19.043c0,-13.048 4.056,-19.572 12.167,-19.572c8.111,-0 12.166,6.524 12.166,19.572c0,12.695 -4.055,19.043 -12.166,19.043Zm-0,-16.425c-0.794,0 -1.433,-0.238 -1.918,-0.714c-0.485,-0.476 -0.727,-1.111 -0.727,-1.904c-0,-0.811 0.242,-1.455 0.727,-1.931c0.485,-0.476 1.124,-0.714 1.918,-0.714c0.793,0 1.432,0.238 1.917,0.714c0.485,0.476 0.728,1.12 0.728,1.931c-0,0.793 -0.238,1.428 -0.714,1.904c-0.477,0.476 -1.12,0.714 -1.931,0.714Zm-0,14.045c6.418,-0 9.627,-5.555 9.627,-16.663c0,-11.461 -3.209,-17.192 -9.627,-17.192c-6.418,0 -9.627,5.731 -9.627,17.192c-0,11.108 3.209,16.663 9.627,16.663Z" style="fill:#453039;fill-rule:nonzero;"/><path d="M570.546,130.833l0,-37.557l2.487,-0l-0,37.557l-2.487,-0Zm-10.288,-0l-0,-2.38l10.817,-0l0,2.38l-10.817,-0Zm12.193,-0l-0,-2.38l9.865,-0l0,2.38l-9.865,-0Zm-11.664,-31.95l-0,-2.433l9.759,-3.174l0,2.539l-9.759,3.068Z" style="fill:#453039;fill-rule:nonzero;"/><path d="M602.734,131.362c-8.111,-0 -12.166,-6.348 -12.166,-19.043c0,-13.048 4.055,-19.572 12.166,-19.572c8.111,-0 12.167,6.524 12.167,19.572c-0,12.695 -4.056,19.043 -12.167,19.043Zm0,-16.425c-0.793,0 -1.432,-0.238 -1.917,-0.714c-0.485,-0.476 -0.727,-1.111 -0.727,-1.904c-0,-0.811 0.242,-1.455 0.727,-1.931c0.485,-0.476 1.124,-0.714 1.917,-0.714c0.794,0 1.433,0.238 1.918,0.714c0.485,0.476 0.727,1.12 0.727,1.931c0,0.793 -0.238,1.428 -0.714,1.904c-0.476,0.476 -1.12,0.714 -1.931,0.714Zm0,14.045c6.419,-0 9.628,-5.555 9.628,-16.663c-0,-11.461 -3.209,-17.192 -9.628,-17.192c-6.418,0 -9.627,5.731 -9.627,17.192c0,11.108 3.209,16.663 9.627,16.663Z" style="fill:#453039;fill-rule:nonzero;"/><path d="M634.473,131.362c-8.111,-0 -12.167,-6.348 -12.167,-19.043c0,-13.048 4.056,-19.572 12.167,-19.572c8.111,-0 12.166,6.524 12.166,19.572c-0,12.695 -4.055,19.043 -12.166,19.043Zm-0,-16.425c-0.794,0 -1.433,-0.238 -1.918,-0.714c-0.485,-0.476 -0.727,-1.111 -0.727,-1.904c-0,-0.811 0.242,-1.455 0.727,-1.931c0.485,-0.476 1.124,-0.714 1.918,-0.714c0.793,0 1.432,0.238 1.917,0.714c0.485,0.476 0.728,1.12 0.728,1.931c-0,0.793 -0.239,1.428 -0.715,1.904c-0.476,0.476 -1.119,0.714 -1.93,0.714Zm-0,14.045c6.418,-0 9.627,-5.555 9.627,-16.663c-0,-11.461 -3.209,-17.192 -9.627,-17.192c-6.419,0 -9.628,5.731 -9.628,17.192c0,11.108 3.209,16.663 9.628,16.663Z" style="fill:#453039;fill-rule:nonzero;"/></svg>