<?xml version="1.0" encoding="UTF-8" standalone="no"?><!DOCTYPE svg PUBLIC "-//W3C//DTD SVG 1.1//EN" "http://www.w3.org/Graphics/SVG/1.1/DTD/svg11.dtd"><svg width="100%" height="100%" viewBox="0 0 322 111" version="1.1" xmlns="http://www.w3.org/2000/svg" xmlns:xlink="http://www.w3.org/1999/xlink" xml:space="preserve" xmlns:serif="http://www.serif.com/" style="fill-rule:evenodd;clip-rule:evenodd;stroke-linejoin:round;stroke-miterlimit:2;"><g transform="matrix(54.1667,0,0,54.1667,301.408,109.832)"></g><text x="47.502px" y="109.832px" style="font-family:'CascadiaMono-Regular', 'Cascadia Mono', monospace;font-size:54.167px;fill:#40002d;fill-opacity:0.82;">01111100</text><g><g><path d="M143.502,55.889l-5.587,0.071l-1.525,0.021c-2.58,0.035 -5.162,0.071 -7.742,0.085c-4.941,0.036 -9.887,0.041 -14.832,0.046l-1.395,-0c-7.755,0.009 -18.375,0.022 -28.272,0.173c-4.906,0.081 -9.9,0.21 -14.844,0.38l-2.803,0.106c-1.613,0.067 -3.123,0.122 -4.636,0.173c-2.476,0.082 -4.958,0.147 -7.44,0.203c-7.674,0.172 -15.452,0.233 -23.097,0.271c-0.015,-0.178 -0.1,-0.326 -0.233,-0.46c-0.03,-0.032 -0.059,-0.062 -0.091,-0.093c-0.024,-0.027 -0.049,-0.056 -0.073,-0.085c-0.048,-0.071 -0.094,-0.144 -0.134,-0.219c-0.222,-0.531 -0.359,-1.096 -0.465,-1.654c-0.033,-0.224 -0.067,-0.445 -0.1,-0.667c0.004,0.022 0.007,0.044 0.012,0.066c-0.035,-0.253 -0.064,-0.507 -0.076,-0.761c-0.011,-0.231 0.013,-0.458 0.047,-0.689c0.023,-0.114 0.054,-0.226 0.081,-0.34c0.052,-0.192 -0.064,-0.391 -0.285,-0.441c-0.036,-0.008 -0.072,-0.012 -0.106,-0.012c-0.182,0 -0.358,0.104 -0.406,0.261c-0.085,0.305 -0.196,0.596 -0.326,0.887c-0.185,0.363 -0.373,0.723 -0.524,1.095c-0.076,0.173 -0.104,0.355 -0.14,0.538c-0.046,0.258 -0.07,0.511 -0.064,0.771c0.006,0.466 0.192,0.912 0.443,1.319c0.104,0.167 0.268,0.314 0.403,0.466c0.009,0.01 0.022,0.018 0.032,0.028c-1.249,0.005 -2.508,0.012 -3.747,0.017l-0.218,0.001l-0.215,0c0.142,-0.453 0.285,-0.867 0.376,-1.282c0.103,-0.452 0.11,-0.91 0.104,-1.261c-0.006,-0.424 -0.103,-0.847 -0.186,-1.169c-0.1,-0.37 -0.275,-0.723 -0.443,-1.052c-0.371,-0.715 -0.952,-1.332 -1.465,-1.854c-0.261,-0.266 -0.547,-0.514 -0.835,-0.763l-0.156,-0.136c-0.426,-0.365 -0.851,-0.73 -1.271,-1.101c-0.099,-0.086 -0.222,-0.131 -0.361,-0.131c-0.142,-0 -0.269,0.047 -0.361,0.131c-0.061,0.053 -0.106,0.123 -0.131,0.208c-0.167,0.039 -0.293,0.188 -0.293,0.353l0.002,0.644c-0,0.537 -0.002,1.078 0.028,1.617c0.042,0.84 0.143,1.672 0.303,2.472c0.17,0.864 0.654,2.68 1.112,3.342c0.228,0.331 0.372,-0.386 0.757,-0.079l0.118,0.074c-1.246,0.006 -2.493,0.016 -3.732,0.026l-0.559,0.006l-0.513,-0c0.062,-0.008 0.095,-0.084 0.128,-0.158c0.06,-0.162 0.084,-0.29 0.107,-0.415c0.066,-0.362 0.078,-0.545 0.084,-0.733c-0,-0.157 -0.025,-0.315 -0.052,-0.472c-0.148,-0.747 -0.406,-1.204 -0.545,-1.451c-0.185,-0.361 -0.444,-0.663 -0.765,-1.022c-0.204,-0.223 -0.438,-0.432 -0.671,-0.634l-0.146,-0.131c-0.146,-0.128 -0.292,-0.25 -0.443,-0.367c-0.164,-0.122 -0.333,-0.228 -0.503,-0.334c-0.226,-0.139 -0.389,-0.224 -0.534,-0.296c-0.371,-0.182 -0.615,-0.299 -0.86,-0.411c-0.443,-0.202 -0.898,-0.375 -1.353,-0.547c-0.077,-0.032 -0.143,-0.052 -0.216,-0.052c-0.007,-0 -0.149,0.052 -0.149,0.058c-0.008,-0.001 -0.014,-0.001 -0.02,-0.001c-0.067,-0 -0.149,0.058 -0.195,0.137c-0.082,0.112 -0.079,0.27 0.008,0.383c-0.06,0.867 -0.048,1.624 0.032,2.307c0.044,0.357 0.115,0.689 0.223,1.017c0.098,0.367 0.29,0.73 0.484,1.067c0.325,0.592 0.822,1.154 1.437,1.626c0.292,0.209 0.59,0.392 0.911,0.549l-1.554,-0.089l-1.574,0.005c0.063,-0.087 -0.01,-0.248 -0.18,-0.412c-0.312,-0.302 -0.691,-0.575 -1.226,-0.884c-0.439,-0.279 -0.95,-0.459 -1.401,-0.619c-0.95,-0.335 -1.867,-0.498 -2.802,-0.498c-0.514,0.005 -0.899,0.07 -1.238,0.127c-0.604,0.101 -1.083,0.28 -1.39,0.406c-0.917,0.364 -1.76,0.896 -2.501,1.366l-0.437,0.279c-0.14,0.087 -0.231,0.214 -0.262,0.369c-0.072,0.144 -0.03,0.331 0.103,0.451c0.768,0.695 1.546,1.209 2.38,1.575c0.865,0.397 1.886,0.635 3.035,0.706c0.174,0.011 0.326,0.021 0.485,0.021c0.814,-0 1.677,-0.119 2.568,-0.356c0.458,-0.114 0.942,-0.296 1.523,-0.568c0.39,-0.181 0.805,-0.433 1.342,-0.818l2.495,-0.012c-0.116,0.001 -0.231,0.072 -0.404,0.19c-0.619,0.424 -1.159,0.95 -1.699,1.656c-0.756,0.985 -1.169,2.138 -1.535,3.156l-0.267,0.731c-0.138,0.071 -0.228,0.218 -0.228,0.374c0,0.258 0.258,0.484 0.551,0.484c0.51,-0.016 0.936,-0.057 1.343,-0.133c0.528,-0.089 1.014,-0.267 1.378,-0.411c0.445,-0.178 0.844,-0.428 1.11,-0.595c0.397,-0.267 0.753,-0.559 1.086,-0.894c0.648,-0.65 1.16,-1.375 1.522,-2.154c0.2,-0.41 0.351,-0.825 0.461,-1.269c0.047,-0.163 0.07,-0.33 0.094,-0.499l0.029,-0.172c0.023,-0.159 0.035,-0.321 0.035,-0.49c1.226,0.053 2.49,0.074 3.76,0.09l0.804,0.021l0.152,-0l-0.335,0.189c-0.29,0.236 -0.566,0.544 -0.843,0.943c-0.283,0.395 -0.476,0.828 -0.625,1.199c-0.358,0.883 -0.537,1.811 -0.711,2.709c-0.152,0.788 -0.309,1.602 -0.582,2.377c-0.037,0.095 -0.024,0.19 0.036,0.279c0.055,0.091 0.152,0.157 0.259,0.178l0.249,-0.019l0.185,0.01c0.399,-0.067 0.819,-0.175 1.253,-0.321c0.418,-0.133 0.831,-0.32 1.262,-0.573c0.401,-0.228 0.777,-0.494 1.15,-0.813c0.32,-0.274 0.628,-0.592 0.992,-1.031c0.592,-0.712 1.026,-1.547 1.29,-2.479c0.256,-0.888 0.24,-1.797 -0.047,-2.629l0.194,0.038l2.871,0.049c-0.201,0.267 -0.367,0.554 -0.468,0.872c-0.07,0.234 -0.088,0.487 -0.11,0.726c-0.024,0.234 -0.024,0.461 -0.012,0.695c0.012,0.244 0.018,0.486 0.046,0.725c0.024,0.248 0.052,0.492 0.076,0.74c0.018,0.197 0.174,0.36 0.413,0.36c0.221,-0 0.431,-0.163 0.419,-0.36c-0.01,-0.175 -0.012,-0.341 0.008,-0.514c0.053,-0.25 0.131,-0.492 0.234,-0.732c0.107,-0.178 0.225,-0.349 0.359,-0.515c0.213,-0.224 0.442,-0.431 0.676,-0.642c0.14,-0.127 0.285,-0.253 0.419,-0.385c0.164,-0.166 0.306,-0.331 0.482,-0.483c0.076,-0.046 0.152,-0.088 0.229,-0.126c0.152,-0.079 0.26,-0.196 0.343,-0.322c2.965,0.042 5.927,0.084 8.88,0.115c3.508,0.041 7.02,0.067 10.528,0.067c1.445,-0 2.895,-0 4.34,-0.011c2.482,-0.02 4.963,-0.045 7.445,-0.096c1.375,-0.021 2.756,-0.056 4.131,-0.091l3.304,-0.076c4.762,-0.098 9.919,-0.142 16.231,-0.142c4.562,0 9.129,0.026 13.691,0.056l1.952,0.01l1.923,0.016l1.922,0.01c3.851,0.026 7.702,0.046 11.552,0.046c4.511,-0 8.46,-0.026 12.072,-0.082c5.253,-0.066 9.369,-0.148 13.645,-0.35c0.411,-0.021 0.74,-0.138 1.005,-0.359c0.266,-0.236 0.418,-0.554 0.418,-0.871c-0.005,-0.676 -0.646,-1.243 -1.407,-1.243Z" style="fill:#40002d;fill-opacity:0.86;"/></g><g><path d="M174.074,59.151l5.73,-0.071l1.564,-0.021c2.647,-0.035 5.294,-0.071 7.941,-0.085c5.067,-0.036 10.139,-0.041 15.211,-0.046l1.43,0c7.954,-0.009 18.846,-0.022 28.997,-0.173c5.031,-0.081 10.153,-0.21 15.224,-0.38l2.874,-0.106c1.655,-0.067 3.203,-0.122 4.755,-0.173c2.539,-0.082 5.085,-0.147 7.63,-0.203c7.871,-0.172 15.848,-0.233 23.689,-0.271c0.015,0.178 0.102,0.326 0.238,0.46c0.031,0.032 0.061,0.062 0.094,0.093c0.024,0.027 0.05,0.056 0.074,0.085c0.049,0.071 0.097,0.144 0.138,0.219c0.228,0.531 0.369,1.096 0.477,1.654c0.034,0.224 0.069,0.445 0.103,0.667c-0.005,-0.022 -0.008,-0.044 -0.012,-0.066c0.035,0.253 0.065,0.507 0.078,0.761c0.01,0.231 -0.014,0.458 -0.049,0.689c-0.023,0.114 -0.055,0.226 -0.083,0.34c-0.053,0.192 0.066,0.391 0.292,0.441c0.037,0.008 0.074,0.012 0.109,0.012c0.186,-0 0.367,-0.104 0.416,-0.261c0.087,-0.305 0.202,-0.596 0.335,-0.887c0.19,-0.363 0.382,-0.723 0.537,-1.095c0.078,-0.173 0.107,-0.355 0.144,-0.538c0.047,-0.258 0.071,-0.511 0.065,-0.771c-0.006,-0.466 -0.197,-0.912 -0.454,-1.319c-0.107,-0.167 -0.275,-0.314 -0.413,-0.466c-0.009,-0.01 -0.023,-0.018 -0.034,-0.028c1.282,-0.005 2.573,-0.012 3.844,-0.017l0.224,-0.001l0.22,-0c-0.145,0.453 -0.292,0.867 -0.386,1.282c-0.105,0.452 -0.113,0.91 -0.107,1.261c0.006,0.424 0.106,0.847 0.191,1.169c0.103,0.37 0.282,0.723 0.455,1.052c0.381,0.715 0.976,1.332 1.502,1.854c0.268,0.266 0.561,0.514 0.856,0.763l0.161,0.136c0.436,0.365 0.872,0.73 1.303,1.101c0.101,0.086 0.228,0.131 0.37,0.131c0.146,0 0.276,-0.047 0.371,-0.131c0.062,-0.053 0.108,-0.123 0.134,-0.208c0.171,-0.039 0.3,-0.188 0.3,-0.353l-0.002,-0.644c0,-0.537 0.002,-1.078 -0.029,-1.617c-0.042,-0.84 -0.146,-1.672 -0.31,-2.472c-0.175,-0.864 -0.671,-2.68 -1.14,-3.342c-0.234,-0.331 -0.382,0.386 -0.777,0.079l-0.121,-0.074c1.278,-0.006 2.556,-0.016 3.827,-0.026l0.574,-0.006l0.526,0c-0.064,0.008 -0.098,0.084 -0.131,0.158c-0.062,0.162 -0.086,0.29 -0.11,0.415c-0.068,0.362 -0.08,0.545 -0.086,0.733c-0,0.157 0.026,0.315 0.053,0.472c0.152,0.747 0.416,1.204 0.559,1.451c0.189,0.361 0.456,0.663 0.784,1.022c0.21,0.223 0.45,0.432 0.689,0.634l0.15,0.131c0.15,0.128 0.299,0.25 0.454,0.367c0.168,0.122 0.341,0.228 0.515,0.334c0.233,0.139 0.4,0.224 0.548,0.296c0.381,0.182 0.632,0.299 0.883,0.411c0.454,0.202 0.92,0.375 1.387,0.547c0.079,0.032 0.147,0.052 0.222,0.052c0.007,0 0.153,-0.052 0.153,-0.058c0.007,0.001 0.013,0.001 0.02,0.001c0.068,0 0.152,-0.058 0.2,-0.137c0.084,-0.112 0.081,-0.27 -0.008,-0.383c0.061,-0.867 0.049,-1.624 -0.033,-2.307c-0.045,-0.357 -0.118,-0.689 -0.228,-1.017c-0.101,-0.367 -0.299,-0.73 -0.497,-1.067c-0.334,-0.592 -0.843,-1.154 -1.473,-1.626c-0.3,-0.209 -0.606,-0.392 -0.935,-0.549l1.594,0.089l1.614,-0.005c-0.065,0.087 0.01,0.248 0.185,0.412c0.319,0.302 0.708,0.575 1.257,0.884c0.45,0.279 0.974,0.459 1.436,0.619c0.975,0.335 1.915,0.498 2.874,0.498c0.528,-0.005 0.923,-0.07 1.27,-0.127c0.619,-0.101 1.11,-0.28 1.425,-0.406c0.941,-0.364 1.805,-0.896 2.566,-1.366l0.448,-0.279c0.144,-0.087 0.237,-0.214 0.269,-0.369c0.073,-0.144 0.031,-0.331 -0.106,-0.451c-0.787,-0.695 -1.586,-1.209 -2.441,-1.575c-0.887,-0.397 -1.935,-0.635 -3.113,-0.706c-0.178,-0.011 -0.335,-0.021 -0.497,-0.021c-0.835,0 -1.72,0.119 -2.634,0.356c-0.469,0.114 -0.966,0.296 -1.561,0.568c-0.401,0.181 -0.826,0.433 -1.377,0.818l-2.559,0.012c0.119,-0.001 0.237,-0.072 0.415,-0.19c0.634,-0.424 1.188,-0.95 1.742,-1.656c0.775,-0.985 1.199,-2.138 1.574,-3.156l0.274,-0.731c0.142,-0.071 0.234,-0.218 0.234,-0.374c-0,-0.258 -0.265,-0.484 -0.565,-0.484c-0.523,0.016 -0.96,0.057 -1.378,0.133c-0.541,0.089 -1.04,0.267 -1.413,0.411c-0.456,0.178 -0.866,0.428 -1.138,0.595c-0.407,0.267 -0.773,0.559 -1.114,0.894c-0.665,0.65 -1.19,1.375 -1.562,2.154c-0.205,0.41 -0.359,0.825 -0.472,1.269c-0.048,0.163 -0.072,0.33 -0.097,0.499l-0.029,0.172c-0.024,0.159 -0.036,0.321 -0.036,0.49c-1.258,-0.053 -2.553,-0.074 -3.856,-0.09l-0.825,-0.021l-0.156,0l0.344,-0.189c0.297,-0.236 0.58,-0.544 0.864,-0.943c0.291,-0.395 0.488,-0.828 0.641,-1.199c0.367,-0.883 0.551,-1.811 0.73,-2.709c0.156,-0.788 0.317,-1.602 0.596,-2.377c0.039,-0.095 0.025,-0.19 -0.036,-0.279c-0.057,-0.091 -0.156,-0.157 -0.266,-0.178l-0.256,0.019l-0.189,-0.01c-0.409,0.067 -0.84,0.175 -1.285,0.321c-0.429,0.133 -0.852,0.32 -1.294,0.573c-0.412,0.228 -0.797,0.494 -1.18,0.813c-0.329,0.274 -0.644,0.592 -1.017,1.031c-0.607,0.712 -1.052,1.547 -1.323,2.479c-0.263,0.888 -0.246,1.797 0.047,2.629l-0.198,-0.038l-2.945,-0.049c0.207,-0.267 0.376,-0.554 0.48,-0.872c0.072,-0.234 0.091,-0.487 0.114,-0.726c0.024,-0.234 0.024,-0.461 0.012,-0.695c-0.012,-0.244 -0.018,-0.486 -0.048,-0.725c-0.024,-0.248 -0.053,-0.492 -0.078,-0.74c-0.018,-0.197 -0.179,-0.36 -0.423,-0.36c-0.227,0 -0.442,0.163 -0.43,0.36c0.011,0.175 0.012,0.341 -0.008,0.514c-0.055,0.25 -0.134,0.492 -0.24,0.732c-0.11,0.178 -0.231,0.349 -0.368,0.515c-0.219,0.224 -0.453,0.431 -0.693,0.642c-0.144,0.127 -0.293,0.253 -0.43,0.385c-0.168,0.166 -0.314,0.331 -0.494,0.483c-0.078,0.046 -0.156,0.088 -0.236,0.126c-0.156,0.079 -0.266,0.196 -0.352,0.322c-3.04,-0.041 -6.078,-0.084 -9.107,-0.115c-3.597,-0.041 -7.2,-0.067 -10.797,-0.067c-1.482,0 -2.969,0 -4.451,0.011c-2.545,0.02 -5.091,0.045 -7.636,0.096c-1.41,0.021 -2.827,0.056 -4.237,0.091l-3.388,0.076c-4.884,0.098 -10.173,0.142 -16.646,0.142c-4.679,-0 -9.363,-0.026 -14.042,-0.056l-2.002,-0.01l-1.972,-0.016l-1.971,-0.01c-3.95,-0.026 -7.899,-0.046 -11.849,-0.046c-4.625,0 -8.675,0.026 -12.38,0.082c-5.387,0.066 -9.609,0.148 -13.994,0.35c-0.422,0.021 -0.759,0.138 -1.031,0.359c-0.273,0.236 -0.429,0.554 -0.429,0.871c0.005,0.676 0.663,1.243 1.443,1.243Z" style="fill:#40002d;fill-opacity:0.86;"/></g><g><circle cx="285.428" cy="23.711" r="3.459" style="fill:#ff3ee0;"/><circle cx="253.689" cy="23.711" r="3.459" style="fill:#ff3ee0;"/><circle cx="31.698" cy="91.053" r="3.459" style="fill:#ff3ee0;"/><circle cx="158.952" cy="57.658" r="3.459" style="fill:#ff3ee0;"/><circle cx="285.428" cy="91.053" r="3.459" style="fill:#ff3ee0;"/><circle cx="253.689" cy="91.053" r="3.459" style="fill:#ff3ee0;"/></g><g><circle cx="63.436" cy="23.711" r="3.459" style="fill:#ff3ee0;"/><circle cx="31.698" cy="23.711" r="3.459" style="fill:#ff3ee0;"/><circle cx="31.698" cy="23.711" r="3.459" style="fill:#ff3ee0;"/><circle cx="63.436" cy="91.053" r="3.459" style="fill:#ff3ee0;"/></g></g><path d="M100.942,38.615c-5.148,-0 -9.133,-1.688 -11.954,-5.065c-2.822,-3.377 -4.232,-8.142 -4.232,-14.295c-0,-6.119 1.393,-10.858 4.179,-14.217c2.786,-3.359 6.718,-5.038 11.796,-5.038c2.398,-0 4.527,0.357 6.387,1.071c1.86,0.714 3.302,1.724 4.324,3.029l-1.824,1.798c-1.023,-1.128 -2.279,-1.997 -3.769,-2.605c-1.49,-0.608 -3.09,-0.913 -4.801,-0.913c-4.355,0 -7.736,1.451 -10.143,4.351c-2.407,2.901 -3.61,6.987 -3.61,12.259c-0,5.466 1.247,9.707 3.742,12.722c2.495,3.015 6.009,4.523 10.54,4.523c1.64,-0 3.09,-0.164 4.351,-0.49c1.261,-0.326 2.297,-0.604 3.108,-0.833l1.534,2.116c-0.741,0.229 -1.971,0.551 -3.69,0.965c-1.719,0.415 -3.698,0.622 -5.938,0.622Zm7.142,-1.587l-0,-16.398l2.486,-0l-0,16.398l-2.486,-0Zm-9.575,-14.071l0,-2.327l11.902,-0l-0,2.327l-11.902,0Z" style="fill:#40002d;fill-opacity:0.62;fill-rule:nonzero;"/><rect x="124.296" y="35.706" width="2.486" height="2.38" style="fill:#40002d;"/><path d="M126.783,26.025l-1.64,-8.781l1.584,0l0.056,0.847l-0,7.934Z" style="fill:#40002d;"/><rect x="124.296" y="10.05" width="1.058" height="2.38" style="fill:#40002d;"/><g transform="matrix(3.125,0,0,3.125,-237.755,-931.698)"><path d="M116.652,306.472l-0.525,-2.81l0.593,-0c0.259,-1.648 1.17,-2.472 2.733,-2.472c0.977,0 1.683,0.266 2.121,0.796c0.437,0.53 0.655,1.388 0.655,2.573l-0.812,-0c-0,-0.914 -0.158,-1.574 -0.474,-1.981c-0.316,-0.406 -0.824,-0.609 -1.523,-0.609c-0.926,-0 -1.618,0.391 -2.078,1.172c-0.46,0.782 -0.69,1.892 -0.69,3.331Zm-3.089,3.859l-0,-0.762l5.789,0l-0,0.762l-5.789,-0Zm2.293,-0l0,-8.971l0.627,-0l0.169,2.573l-0,6.398l-0.796,-0Zm-1.955,-8.21l0,-0.761l2.294,-0l-0,0.761l-2.294,0Z" style="fill:#40002d;"/><clipPath id="_clip1"><path d="" clip-rule="nonzero"/></clipPath><g clip-path="url(#_clip1)"><g transform="matrix(1,0,0,1,76.0815,298.143)"><path d="M43.27,12.188l-5.789,-0.001l0,-0.761l2.294,-0l-0,-7.448l0.338,-0l0,-0.762l0.288,0l0.152,2.302l0.085,0c0.26,-1.647 1.171,-2.471 2.734,-2.471c0.976,-0 1.683,0.265 2.12,0.795c0.437,0.531 0.656,1.388 0.656,2.573l-0.813,0c0,-0.914 -0.158,-1.574 -0.474,-1.98c-0.316,-0.406 -0.823,-0.609 -1.523,-0.609c-0.925,-0 -1.618,0.39 -2.078,1.172c-0.46,0.781 -0.69,1.891 -0.69,3.33l0,3.098l2.7,-0l0,0.762Z" style="fill:#40002d;fill-opacity:0.71;"/></g><g transform="matrix(1,0,0,1,76.0815,298.143)"><rect x="37.82" y="3.216" width="1.955" height="0.762" style="fill:#40002d;fill-opacity:0.71;"/></g></g></g><path d="M161.986,38.615c-3.668,-0 -6.524,-1.27 -8.57,-3.809c-2.045,-2.539 -3.068,-6.118 -3.068,-10.738c0,-4.637 1.023,-8.221 3.068,-10.751c2.046,-2.53 4.902,-3.796 8.57,-3.796c3.685,0 6.546,1.266 8.582,3.796c2.037,2.53 3.055,6.114 3.055,10.751c0,4.62 -1.018,8.199 -3.055,10.738c-2.036,2.539 -4.897,3.809 -8.582,3.809Zm-0,-2.433c2.891,-0 5.131,-1.058 6.718,-3.174c1.587,-2.116 2.38,-5.096 2.38,-8.94c0,-3.861 -0.793,-6.846 -2.38,-8.953c-1.587,-2.107 -3.827,-3.16 -6.718,-3.16c-2.892,-0 -5.131,1.053 -6.718,3.16c-1.587,2.107 -2.381,5.092 -2.381,8.953c0,3.844 0.794,6.824 2.381,8.94c1.587,2.116 3.826,3.174 6.718,3.174Z" style="fill:#40002d;fill-opacity:0.73;fill-rule:nonzero;"/><path d="M192.296,38.615c-3.174,-0 -5.625,-0.877 -7.353,-2.632c-1.728,-1.754 -2.592,-4.227 -2.592,-7.419l0,-18.514l2.486,0l0,18.514c0,2.451 0.679,4.334 2.037,5.647c1.357,1.314 3.253,1.971 5.686,1.971c2.857,-0 5.017,-0.847 6.48,-2.539c1.464,-1.693 2.195,-4.532 2.195,-8.517l1.429,7.564l-1.587,0c-0.547,1.869 -1.583,3.324 -3.108,4.364c-1.525,1.041 -3.416,1.561 -5.673,1.561Zm9.415,-0.265l-0.264,-6.718l-0.212,-4.919l2.487,0l-0,9.442l3.861,0.265l0,1.666l-5.872,0.264Zm-0.476,-8.199l0,-20.101l2.487,0l-0,21.159l-2.487,-1.058Z" style="fill:#40002d;fill-opacity:0.76;fill-rule:nonzero;"/><path d="M214.671,50.252l0,-40.202l1.957,0l0.529,6.718l0,33.484l-2.486,0Zm12.299,-11.637c-2.839,-0 -5.03,-0.639 -6.573,-1.918c-1.542,-1.278 -2.543,-3.019 -3.002,-5.223l-2.142,-0l1.904,-7.247c0,3.932 0.785,6.907 2.354,8.926c1.57,2.019 3.879,3.029 6.93,3.029c3.015,-0 5.298,-1.005 6.85,-3.015c1.552,-2.011 2.328,-4.955 2.328,-8.834c-0,-4.073 -0.772,-7.155 -2.315,-9.244c-1.543,-2.09 -3.813,-3.134 -6.81,-3.134c-3.068,-0 -5.391,1.009 -6.969,3.028c-1.579,2.019 -2.368,5.003 -2.368,8.953l-1.639,-7.591l1.851,0c0.441,-2.257 1.459,-3.958 3.055,-5.104c1.596,-1.146 3.725,-1.72 6.387,-1.72c3.738,0 6.564,1.252 8.477,3.756c1.913,2.504 2.87,6.189 2.87,11.056c-0,4.69 -0.944,8.243 -2.83,10.658c-1.887,2.416 -4.673,3.624 -8.358,3.624Z" style="fill:#40002d;fill-opacity:0.83;fill-rule:nonzero;"/></svg>