<?xml version="1.0" encoding="UTF-8" standalone="no"?><!DOCTYPE svg PUBLIC "-//W3C//DTD SVG 1.1//EN" "http://www.w3.org/Graphics/SVG/1.1/DTD/svg11.dtd"><svg width="100%" height="100%" viewBox="0 0 344 157" version="1.1" xmlns="http://www.w3.org/2000/svg" xmlns:xlink="http://www.w3.org/1999/xlink" xml:space="preserve" xmlns:serif="http://www.serif.com/" style="fill-rule:evenodd;clip-rule:evenodd;stroke-linejoin:round;stroke-miterlimit:2;"><g transform="matrix(54.1667,0,0,54.1667,314.331,128.463)"></g><text x="60.424px" y="128.463px" style="font-family:'CascadiaMono-Regular', 'Cascadia Mono', monospace;font-size:54.167px;fill:#dbf1ff;fill-opacity:0.76;">01111100</text><g><g><path d="M156.425,74.519l-5.587,0.072l-1.525,0.021c-2.581,0.035 -5.162,0.071 -7.742,0.085c-4.941,0.035 -9.887,0.041 -14.832,0.046l-1.395,-0c-7.755,0.009 -18.376,0.022 -28.273,0.172c-4.905,0.082 -9.9,0.211 -14.844,0.381l-2.802,0.106c-1.614,0.066 -3.123,0.122 -4.637,0.173c-2.475,0.082 -4.957,0.147 -7.439,0.202c-7.675,0.173 -15.452,0.234 -23.097,0.272c-0.015,-0.178 -0.1,-0.326 -0.233,-0.46c-0.03,-0.032 -0.06,-0.062 -0.091,-0.093c-0.024,-0.028 -0.049,-0.056 -0.073,-0.085c-0.048,-0.071 -0.094,-0.144 -0.134,-0.219c-0.222,-0.531 -0.36,-1.096 -0.466,-1.654c-0.032,-0.225 -0.067,-0.445 -0.099,-0.667c0.004,0.022 0.007,0.044 0.011,0.066c-0.034,-0.253 -0.064,-0.508 -0.076,-0.761c-0.01,-0.231 0.014,-0.458 0.048,-0.689c0.022,-0.114 0.054,-0.226 0.081,-0.34c0.052,-0.192 -0.064,-0.391 -0.285,-0.441c-0.036,-0.008 -0.072,-0.012 -0.106,-0.012c-0.182,-0 -0.358,0.104 -0.406,0.261c-0.085,0.305 -0.197,0.596 -0.326,0.886c-0.185,0.364 -0.373,0.723 -0.524,1.096c-0.076,0.173 -0.104,0.354 -0.14,0.537c-0.046,0.259 -0.07,0.512 -0.064,0.772c0.006,0.466 0.192,0.912 0.443,1.318c0.104,0.168 0.268,0.315 0.402,0.467c0.009,0.01 0.023,0.018 0.033,0.028c-1.25,0.005 -2.508,0.012 -3.748,0.017l-0.217,0.001l-0.215,0c0.142,-0.453 0.285,-0.867 0.376,-1.282c0.103,-0.452 0.11,-0.91 0.104,-1.261c-0.006,-0.424 -0.103,-0.848 -0.186,-1.169c-0.1,-0.37 -0.275,-0.724 -0.443,-1.052c-0.372,-0.715 -0.952,-1.332 -1.465,-1.854c-0.261,-0.266 -0.547,-0.514 -0.835,-0.763l-0.157,-0.136c-0.425,-0.365 -0.85,-0.73 -1.27,-1.101c-0.099,-0.086 -0.223,-0.131 -0.361,-0.131c-0.142,-0 -0.269,0.046 -0.361,0.131c-0.061,0.053 -0.106,0.123 -0.131,0.208c-0.167,0.038 -0.293,0.188 -0.293,0.353l0.002,0.644c-0,0.537 -0.002,1.078 0.028,1.617c0.042,0.84 0.143,1.672 0.303,2.472c0.17,0.864 0.654,2.68 1.112,3.342c0.228,0.331 0.372,-0.386 0.757,-0.079l0.117,0.074c-1.245,0.005 -2.492,0.016 -3.731,0.026l-0.559,0.005l-0.513,0c0.062,-0.007 0.095,-0.083 0.128,-0.157c0.059,-0.162 0.083,-0.29 0.107,-0.415c0.066,-0.362 0.078,-0.545 0.084,-0.734c-0,-0.157 -0.026,-0.314 -0.052,-0.471c-0.148,-0.748 -0.406,-1.204 -0.545,-1.451c-0.185,-0.361 -0.444,-0.663 -0.765,-1.022c-0.204,-0.223 -0.438,-0.432 -0.671,-0.635l-0.146,-0.131c-0.146,-0.127 -0.293,-0.249 -0.443,-0.366c-0.164,-0.122 -0.333,-0.228 -0.503,-0.335c-0.226,-0.139 -0.389,-0.223 -0.534,-0.296c-0.371,-0.181 -0.616,-0.298 -0.86,-0.41c-0.443,-0.202 -0.898,-0.375 -1.353,-0.548c-0.078,-0.031 -0.143,-0.052 -0.216,-0.052c-0.008,0 -0.149,0.052 -0.149,0.059c-0.008,-0.001 -0.014,-0.001 -0.02,-0.001c-0.067,-0 -0.149,0.058 -0.195,0.137c-0.082,0.112 -0.079,0.27 0.007,0.383c-0.059,0.867 -0.047,1.624 0.033,2.307c0.043,0.357 0.115,0.689 0.222,1.016c0.099,0.368 0.291,0.731 0.485,1.067c0.325,0.592 0.822,1.154 1.436,1.627c0.293,0.209 0.591,0.392 0.912,0.549l-1.554,-0.089l-1.574,0.005c0.063,-0.087 -0.01,-0.248 -0.18,-0.412c-0.312,-0.302 -0.691,-0.575 -1.226,-0.884c-0.439,-0.279 -0.95,-0.459 -1.401,-0.619c-0.95,-0.335 -1.867,-0.499 -2.802,-0.499c-0.515,0.006 -0.899,0.071 -1.238,0.128c-0.604,0.101 -1.083,0.28 -1.39,0.406c-0.917,0.363 -1.76,0.896 -2.501,1.366l-0.437,0.279c-0.14,0.087 -0.231,0.214 -0.263,0.368c-0.071,0.145 -0.029,0.331 0.103,0.452c0.768,0.695 1.547,1.209 2.381,1.575c0.865,0.397 1.886,0.635 3.035,0.706c0.174,0.01 0.326,0.021 0.484,0.021c0.815,-0 1.678,-0.12 2.569,-0.356c0.457,-0.114 0.942,-0.296 1.522,-0.568c0.391,-0.181 0.806,-0.433 1.343,-0.818l2.495,-0.012c-0.117,0.001 -0.231,0.071 -0.404,0.19c-0.619,0.424 -1.159,0.95 -1.699,1.656c-0.756,0.985 -1.169,2.138 -1.535,3.156l-0.267,0.731c-0.138,0.071 -0.228,0.218 -0.228,0.373c0,0.259 0.258,0.485 0.55,0.485c0.51,-0.016 0.937,-0.057 1.344,-0.133c0.528,-0.089 1.014,-0.267 1.378,-0.411c0.445,-0.178 0.844,-0.429 1.11,-0.595c0.396,-0.267 0.753,-0.559 1.086,-0.894c0.648,-0.651 1.16,-1.375 1.522,-2.154c0.2,-0.41 0.351,-0.825 0.461,-1.269c0.046,-0.163 0.07,-0.33 0.094,-0.499l0.028,-0.173c0.024,-0.158 0.036,-0.32 0.036,-0.489c1.226,0.053 2.489,0.074 3.76,0.09l0.804,0.02l0.152,0l-0.336,0.19c-0.289,0.236 -0.565,0.544 -0.842,0.942c-0.284,0.396 -0.476,0.829 -0.625,1.2c-0.358,0.883 -0.537,1.811 -0.711,2.709c-0.153,0.788 -0.309,1.602 -0.582,2.377c-0.037,0.095 -0.024,0.19 0.036,0.279c0.055,0.091 0.152,0.157 0.259,0.178l0.249,-0.02l0.185,0.011c0.398,-0.068 0.819,-0.175 1.253,-0.321c0.418,-0.134 0.831,-0.32 1.262,-0.574c0.401,-0.227 0.777,-0.493 1.15,-0.812c0.32,-0.274 0.627,-0.592 0.991,-1.031c0.592,-0.713 1.026,-1.547 1.29,-2.479c0.257,-0.888 0.241,-1.797 -0.046,-2.629l0.194,0.037l2.871,0.05c-0.201,0.267 -0.367,0.554 -0.468,0.872c-0.07,0.234 -0.088,0.487 -0.111,0.726c-0.024,0.234 -0.024,0.461 -0.012,0.694c0.012,0.244 0.018,0.487 0.047,0.726c0.024,0.248 0.052,0.492 0.076,0.74c0.018,0.197 0.174,0.36 0.413,0.36c0.221,-0 0.431,-0.163 0.419,-0.36c-0.011,-0.175 -0.012,-0.341 0.007,-0.514c0.054,-0.251 0.132,-0.492 0.235,-0.732c0.107,-0.178 0.225,-0.349 0.359,-0.516c0.213,-0.223 0.441,-0.431 0.676,-0.641c0.14,-0.127 0.284,-0.253 0.419,-0.385c0.164,-0.167 0.305,-0.331 0.481,-0.483c0.076,-0.046 0.153,-0.089 0.23,-0.126c0.152,-0.079 0.26,-0.196 0.343,-0.322c2.965,0.041 5.927,0.084 8.88,0.115c3.508,0.041 7.02,0.067 10.528,0.067c1.445,-0 2.895,-0 4.34,-0.011c2.482,-0.021 4.963,-0.045 7.445,-0.096c1.375,-0.021 2.756,-0.056 4.131,-0.091l3.304,-0.076c4.762,-0.098 9.919,-0.142 16.231,-0.142c4.562,0 9.129,0.026 13.691,0.056l1.952,0.01l1.922,0.016l1.923,0.01c3.851,0.026 7.701,0.046 11.552,0.046c4.51,-0 8.46,-0.026 12.072,-0.082c5.253,-0.066 9.369,-0.148 13.645,-0.351c0.411,-0.02 0.739,-0.137 1.005,-0.358c0.265,-0.236 0.417,-0.554 0.417,-0.871c-0.004,-0.676 -0.645,-1.244 -1.406,-1.244Z" style="fill:#eceeff;fill-opacity:0.95;"/></g><g><path d="M186.997,77.782l5.729,-0.071l1.565,-0.021c2.646,-0.035 5.294,-0.071 7.94,-0.086c5.068,-0.035 10.14,-0.04 15.212,-0.045l1.43,-0c7.954,-0.009 18.846,-0.022 28.997,-0.173c5.03,-0.082 10.153,-0.21 15.224,-0.38l2.874,-0.107c1.655,-0.066 3.203,-0.122 4.755,-0.172c2.539,-0.082 5.085,-0.147 7.63,-0.203c7.871,-0.172 15.848,-0.233 23.688,-0.271c0.016,0.178 0.103,0.326 0.239,0.459c0.031,0.033 0.061,0.063 0.093,0.094c0.025,0.027 0.051,0.056 0.075,0.084c0.049,0.072 0.097,0.144 0.138,0.22c0.228,0.531 0.369,1.095 0.477,1.654c0.034,0.224 0.069,0.445 0.103,0.667c-0.005,-0.022 -0.008,-0.044 -0.013,-0.066c0.036,0.253 0.066,0.507 0.078,0.76c0.011,0.231 -0.013,0.459 -0.048,0.69c-0.023,0.114 -0.056,0.226 -0.083,0.34c-0.054,0.192 0.066,0.39 0.292,0.441c0.037,0.008 0.073,0.012 0.109,0.012c0.186,-0 0.367,-0.104 0.416,-0.261c0.087,-0.305 0.202,-0.596 0.335,-0.887c0.189,-0.363 0.382,-0.723 0.537,-1.095c0.078,-0.173 0.107,-0.355 0.143,-0.538c0.048,-0.258 0.072,-0.511 0.066,-0.771c-0.006,-0.466 -0.197,-0.913 -0.454,-1.319c-0.107,-0.167 -0.275,-0.314 -0.413,-0.466c-0.009,-0.01 -0.023,-0.018 -0.034,-0.028c1.282,-0.006 2.573,-0.012 3.844,-0.017l0.223,-0.002l0.221,0c-0.146,0.453 -0.293,0.868 -0.386,1.283c-0.105,0.452 -0.113,0.91 -0.107,1.26c0.006,0.425 0.106,0.848 0.191,1.17c0.103,0.37 0.282,0.723 0.455,1.052c0.38,0.715 0.975,1.331 1.502,1.853c0.267,0.266 0.561,0.514 0.856,0.764l0.161,0.136c0.436,0.365 0.872,0.73 1.303,1.101c0.101,0.085 0.228,0.131 0.37,0.131c0.145,-0 0.276,-0.047 0.37,-0.131c0.063,-0.053 0.109,-0.124 0.135,-0.208c0.171,-0.039 0.3,-0.188 0.3,-0.353l-0.002,-0.644c0,-0.537 0.002,-1.079 -0.029,-1.617c-0.043,-0.84 -0.147,-1.672 -0.31,-2.472c-0.175,-0.865 -0.671,-2.68 -1.141,-3.342c-0.234,-0.331 -0.381,0.386 -0.776,0.078l-0.121,-0.074c1.277,-0.005 2.556,-0.015 3.827,-0.026l0.574,-0.005l0.526,0c-0.064,0.008 -0.098,0.083 -0.132,0.157c-0.061,0.163 -0.085,0.291 -0.11,0.416c-0.067,0.362 -0.079,0.545 -0.085,0.733c-0,0.157 0.026,0.314 0.053,0.471c0.152,0.748 0.416,1.205 0.559,1.452c0.189,0.361 0.455,0.663 0.784,1.021c0.21,0.224 0.45,0.433 0.689,0.635l0.149,0.131c0.15,0.128 0.3,0.25 0.455,0.366c0.168,0.122 0.341,0.229 0.515,0.335c0.233,0.139 0.399,0.224 0.548,0.296c0.381,0.182 0.631,0.299 0.882,0.41c0.455,0.203 0.921,0.376 1.388,0.548c0.079,0.031 0.147,0.052 0.221,0.052c0.008,0 0.153,-0.052 0.153,-0.058c0.008,0.001 0.014,0.001 0.02,0.001c0.069,0 0.153,-0.058 0.201,-0.137c0.084,-0.112 0.081,-0.271 -0.008,-0.383c0.061,-0.868 0.049,-1.624 -0.034,-2.307c-0.044,-0.357 -0.117,-0.69 -0.228,-1.017c-0.1,-0.367 -0.298,-0.731 -0.497,-1.067c-0.333,-0.592 -0.842,-1.154 -1.473,-1.626c-0.299,-0.209 -0.605,-0.392 -0.934,-0.549l1.594,0.089l1.613,-0.005c-0.064,0.087 0.011,0.248 0.185,0.411c0.32,0.303 0.709,0.576 1.258,0.884c0.449,0.28 0.974,0.46 1.436,0.62c0.974,0.335 1.915,0.498 2.874,0.498c0.528,-0.005 0.922,-0.07 1.27,-0.127c0.619,-0.101 1.11,-0.28 1.425,-0.406c0.941,-0.364 1.805,-0.896 2.565,-1.366l0.449,-0.279c0.143,-0.087 0.237,-0.214 0.269,-0.369c0.073,-0.144 0.03,-0.331 -0.106,-0.452c-0.788,-0.694 -1.586,-1.208 -2.441,-1.574c-0.887,-0.397 -1.935,-0.635 -3.113,-0.706c-0.179,-0.011 -0.335,-0.021 -0.497,-0.021c-0.835,-0 -1.721,0.119 -2.634,0.356c-0.469,0.114 -0.966,0.296 -1.561,0.568c-0.401,0.181 -0.826,0.432 -1.377,0.818l-2.559,0.012c0.119,-0.002 0.237,-0.072 0.414,-0.19c0.635,-0.424 1.189,-0.95 1.743,-1.656c0.775,-0.986 1.199,-2.138 1.574,-3.156l0.273,-0.731c0.143,-0.071 0.234,-0.218 0.234,-0.374c0,-0.258 -0.264,-0.484 -0.564,-0.484c-0.523,0.016 -0.961,0.057 -1.378,0.132c-0.542,0.09 -1.04,0.268 -1.414,0.412c-0.455,0.178 -0.865,0.428 -1.138,0.594c-0.406,0.268 -0.772,0.56 -1.113,0.895c-0.665,0.65 -1.19,1.375 -1.562,2.153c-0.205,0.411 -0.359,0.826 -0.472,1.27c-0.048,0.162 -0.072,0.33 -0.097,0.499l-0.029,0.172c-0.024,0.159 -0.037,0.321 -0.037,0.49c-1.257,-0.054 -2.552,-0.074 -3.856,-0.09l-0.824,-0.021l-0.156,0l0.344,-0.189c0.297,-0.237 0.58,-0.544 0.864,-0.943c0.291,-0.396 0.488,-0.828 0.641,-1.199c0.367,-0.883 0.551,-1.811 0.73,-2.709c0.156,-0.788 0.316,-1.602 0.596,-2.377c0.039,-0.095 0.025,-0.19 -0.036,-0.279c-0.057,-0.091 -0.156,-0.158 -0.267,-0.178l-0.255,0.019l-0.19,-0.01c-0.408,0.067 -0.839,0.175 -1.285,0.32c-0.428,0.134 -0.852,0.321 -1.294,0.574c-0.411,0.227 -0.796,0.494 -1.179,0.813c-0.329,0.274 -0.644,0.592 -1.017,1.031c-0.607,0.712 -1.052,1.547 -1.323,2.479c-0.263,0.888 -0.246,1.797 0.047,2.629l-0.199,-0.038l-2.944,-0.049c0.206,-0.268 0.376,-0.555 0.48,-0.873c0.072,-0.233 0.091,-0.486 0.113,-0.725c0.025,-0.234 0.025,-0.461 0.013,-0.695c-0.013,-0.244 -0.019,-0.487 -0.048,-0.725c-0.024,-0.248 -0.053,-0.492 -0.078,-0.74c-0.018,-0.198 -0.179,-0.36 -0.423,-0.36c-0.227,0 -0.442,0.162 -0.43,0.36c0.01,0.175 0.012,0.341 -0.008,0.514c-0.055,0.25 -0.135,0.492 -0.24,0.732c-0.11,0.178 -0.231,0.349 -0.369,0.515c-0.218,0.224 -0.452,0.431 -0.693,0.642c-0.143,0.127 -0.292,0.253 -0.429,0.385c-0.169,0.166 -0.314,0.331 -0.494,0.483c-0.078,0.045 -0.156,0.088 -0.236,0.126c-0.156,0.079 -0.266,0.196 -0.352,0.322c-3.041,-0.042 -6.078,-0.085 -9.107,-0.116c-3.598,-0.04 -7.2,-0.066 -10.797,-0.066c-1.482,0 -2.969,0 -4.451,0.011c-2.546,0.02 -5.091,0.045 -7.636,0.096c-1.41,0.02 -2.827,0.055 -4.237,0.09l-3.388,0.077c-4.884,0.097 -10.173,0.142 -16.647,0.142c-4.679,-0 -9.362,-0.026 -14.041,-0.056l-2.002,-0.011l-1.972,-0.015l-1.972,-0.011c-3.949,-0.026 -7.898,-0.045 -11.848,-0.045c-4.625,-0 -8.676,0.026 -12.38,0.082c-5.388,0.066 -9.609,0.148 -13.995,0.35c-0.422,0.021 -0.758,0.138 -1.03,0.358c-0.273,0.237 -0.429,0.555 -0.429,0.872c0.005,0.676 0.663,1.243 1.443,1.243Z" style="fill:#eceeff;fill-opacity:0.95;"/></g><g><circle cx="298.35" cy="42.341" r="3.459" style="fill:#ff3ee0;"/><circle cx="266.612" cy="42.341" r="3.459" style="fill:#ff3ee0;"/><circle cx="44.621" cy="109.684" r="3.459" style="fill:#ff3ee0;"/><circle cx="171.875" cy="76.289" r="3.459" style="fill:#ff3ee0;"/><circle cx="298.35" cy="109.684" r="3.459" style="fill:#ff3ee0;"/><circle cx="266.612" cy="109.684" r="3.459" style="fill:#ff3ee0;"/></g><g><circle cx="76.359" cy="42.341" r="3.459" style="fill:#ff3ee0;"/><circle cx="44.621" cy="42.341" r="3.459" style="fill:#ff3ee0;"/><circle cx="44.621" cy="42.341" r="3.459" style="fill:#ff3ee0;"/><circle cx="76.359" cy="109.684" r="3.459" style="fill:#ff3ee0;"/></g></g><path d="M113.865,57.246c-5.148,-0 -9.133,-1.689 -11.955,-5.065c-2.821,-3.377 -4.231,-8.142 -4.231,-14.296c-0,-6.118 1.393,-10.857 4.179,-14.216c2.785,-3.359 6.718,-5.038 11.796,-5.038c2.398,-0 4.527,0.357 6.387,1.071c1.86,0.714 3.302,1.724 4.324,3.028l-1.825,1.799c-1.022,-1.129 -2.279,-1.997 -3.769,-2.605c-1.49,-0.609 -3.09,-0.913 -4.8,-0.913c-4.355,0 -7.736,1.45 -10.143,4.351c-2.407,2.9 -3.61,6.987 -3.61,12.259c-0,5.466 1.247,9.707 3.742,12.722c2.495,3.015 6.008,4.522 10.54,4.522c1.64,0 3.09,-0.163 4.351,-0.489c1.26,-0.326 2.296,-0.604 3.107,-0.833l1.534,2.116c-0.74,0.229 -1.97,0.551 -3.689,0.965c-1.719,0.415 -3.698,0.622 -5.938,0.622Zm7.141,-1.587l0,-16.398l2.486,-0l0,16.398l-2.486,-0Zm-9.574,-14.071l-0,-2.327l11.902,-0l-0,2.327l-11.902,0Z" style="fill:#eceeff;fill-opacity:0.95;fill-rule:nonzero;"/><path d="M139.705,44.656l-1.639,-8.781l1.851,0c0.811,-5.148 3.659,-7.723 8.543,-7.723c3.05,0 5.259,0.829 6.625,2.486c1.367,1.658 2.05,4.338 2.05,8.041l-2.539,-0c0,-2.857 -0.494,-4.92 -1.481,-6.189c-0.988,-1.27 -2.574,-1.904 -4.761,-1.904c-2.892,-0 -5.056,1.221 -6.493,3.663c-1.437,2.442 -2.156,5.911 -2.156,10.407Zm-9.653,12.061l-0,-2.381l18.091,0l-0,2.381l-18.091,-0Zm7.167,-0l0,-28.036l1.957,0l0.529,8.041l0,19.995l-2.486,-0Zm-6.109,-25.655l-0,-2.381l7.167,0l0,2.381l-7.167,-0Z" style="fill:#eceeff;fill-opacity:0.95;fill-rule:nonzero;"/><path d="M174.909,57.246c-3.668,-0 -6.524,-1.27 -8.57,-3.809c-2.045,-2.539 -3.068,-6.118 -3.068,-10.738c0,-4.637 1.023,-8.221 3.068,-10.751c2.046,-2.531 4.902,-3.796 8.57,-3.796c3.685,0 6.546,1.265 8.582,3.796c2.037,2.53 3.055,6.114 3.055,10.751c-0,4.62 -1.018,8.199 -3.055,10.738c-2.036,2.539 -4.897,3.809 -8.582,3.809Zm-0,-2.434c2.891,0 5.131,-1.057 6.717,-3.173c1.587,-2.116 2.381,-5.096 2.381,-8.94c-0,-3.861 -0.794,-6.846 -2.381,-8.953c-1.586,-2.107 -3.826,-3.16 -6.717,-3.16c-2.892,-0 -5.132,1.053 -6.718,3.16c-1.587,2.107 -2.381,5.092 -2.381,8.953c0,3.844 0.794,6.824 2.381,8.94c1.586,2.116 3.826,3.173 6.718,3.173Z" style="fill:#eceeff;fill-opacity:0.95;fill-rule:nonzero;"/><path d="M205.219,57.246c-3.174,-0 -5.625,-0.877 -7.353,-2.632c-1.728,-1.754 -2.592,-4.227 -2.592,-7.419l-0,-18.514l2.486,0l0,18.514c0,2.451 0.679,4.333 2.037,5.647c1.357,1.314 3.253,1.97 5.686,1.97c2.856,0 5.016,-0.846 6.48,-2.539c1.463,-1.692 2.195,-4.531 2.195,-8.516l1.428,7.564l-1.587,0c-0.546,1.869 -1.582,3.324 -3.107,4.364c-1.525,1.041 -3.416,1.561 -5.673,1.561Zm9.415,-0.265l-0.264,-6.718l-0.212,-4.919l2.486,-0l0,9.442l3.862,0.264l-0,1.667l-5.872,0.264Zm-0.476,-8.199l0,-20.101l2.486,0l0,21.159l-2.486,-1.058Z" style="fill:#eceeff;fill-opacity:0.95;fill-rule:nonzero;"/><path d="M227.594,68.883l0,-40.202l1.957,0l0.529,6.718l0,33.484l-2.486,0Zm12.299,-11.637c-2.839,-0 -5.03,-0.639 -6.573,-1.918c-1.543,-1.278 -2.543,-3.019 -3.002,-5.223l-2.142,-0l1.904,-7.247c0,3.932 0.785,6.907 2.354,8.926c1.569,2.019 3.879,3.028 6.93,3.028c3.015,0 5.298,-1.005 6.85,-3.015c1.551,-2.01 2.327,-4.954 2.327,-8.834c0,-4.073 -0.771,-7.154 -2.314,-9.243c-1.543,-2.09 -3.813,-3.134 -6.81,-3.134c-3.068,-0 -5.392,1.009 -6.97,3.028c-1.578,2.019 -2.367,5.003 -2.367,8.953l-1.64,-7.591l1.852,0c0.441,-2.257 1.459,-3.958 3.055,-5.105c1.595,-1.146 3.724,-1.719 6.387,-1.719c3.738,0 6.564,1.252 8.477,3.756c1.913,2.504 2.869,6.189 2.869,11.055c0,4.691 -0.943,8.244 -2.83,10.659c-1.886,2.416 -4.672,3.624 -8.357,3.624Z" style="fill:#eceeff;fill-opacity:0.95;fill-rule:nonzero;"/></svg>