<?xml version="1.0" encoding="UTF-8" standalone="no"?><!DOCTYPE svg PUBLIC "-//W3C//DTD SVG 1.1//EN" "http://www.w3.org/Graphics/SVG/1.1/DTD/svg11.dtd"><svg width="100%" height="100%" viewBox="0 0 80 80" version="1.1" xmlns="http://www.w3.org/2000/svg" xmlns:xlink="http://www.w3.org/1999/xlink" xml:space="preserve" xmlns:serif="http://www.serif.com/" style="fill-rule:evenodd;clip-rule:evenodd;stroke-linejoin:round;stroke-miterlimit:2;"><g><path d="M8.416,70.751l5.892,-0l36.296,-36.296l-5.892,-5.891l-36.296,36.295l0,5.892Zm60.178,-42.398l-17.885,-17.674l5.892,-5.891c1.613,-1.613 3.594,-2.42 5.944,-2.42c2.349,0 4.33,0.807 5.944,2.42l5.891,5.891c1.613,1.613 2.455,3.56 2.525,5.839c0.07,2.28 -0.701,4.226 -2.314,5.839l-5.997,5.996Zm-6.102,6.208l-44.607,44.606l-17.885,-0l-0,-17.885l44.607,-44.606l17.885,17.885Z" style="fill:#2a3647;fill-rule:nonzero;"/></g></svg>