<?xml version="1.0" encoding="UTF-8" standalone="no"?><!DOCTYPE svg PUBLIC "-//W3C//DTD SVG 1.1//EN" "http://www.w3.org/Graphics/SVG/1.1/DTD/svg11.dtd"><svg width="100%" height="100%" viewBox="0 0 1142 1396" version="1.1" xmlns="http://www.w3.org/2000/svg" xmlns:xlink="http://www.w3.org/1999/xlink" xml:space="preserve" xmlns:serif="http://www.serif.com/" style="fill-rule:evenodd;clip-rule:evenodd;stroke-linejoin:round;stroke-miterlimit:2;"><rect x="565.096" y="0" width="252.879" height="290.938" style="fill:#2a3647;fill-rule:nonzero;"/><path d="M565.096,527.558l252.883,0l0,410.321c1.154,98.734 -26.946,195.584 -80.729,278.238c-53.104,80.304 -155.621,175.85 -345.282,175.85c-206.586,-0 -326.997,-97.692 -391.968,-151.229l159.51,-196.763c63.415,51.779 124.496,94.375 233.43,94.375c82.481,0 115.352,-33.608 134.61,-62.917c26.183,-40.708 39.725,-88.316 38.908,-136.77l-1.362,-411.105Z" style="fill:#2a3647;fill-rule:nonzero;"/><rect x="183.242" y="343.888" width="252.883" height="254.008" style="fill:#29abe2;fill-rule:nonzero;"/><path d="M950.45,1272.78c0,54.121 -27.429,83.238 -65.75,83.238c-38.321,-0 -63.417,-34.588 -63.417,-80.505c0,-45.916 25.875,-82.258 65.559,-82.258c39.683,0 63.608,35.754 63.608,79.525Zm-99.792,2.15c0,32.629 13.034,56.663 35.405,56.663c22.37,-0 35.012,-25.4 35.012,-58.617c0,-29.117 -11.671,-56.471 -35.012,-56.471c-23.342,0 -35.405,26.379 -35.405,58.425Z" style="fill:#2a3647;fill-rule:nonzero;"/><rect x="972.625" y="1195.6" width="28.012" height="157.875" style="fill:#2a3647;fill-rule:nonzero;"/><path d="M1030.98,1353.48l0,-157.875l31.121,0l33.458,65.067c8.613,17.012 16.28,34.491 22.955,52.362c-1.75,-19.537 -2.53,-42.008 -2.53,-67.021l0,-50.408l25.68,-0l-0,157.875l-28.984,-0l-33.85,-66.433c-8.958,-17.45 -16.946,-35.388 -23.925,-53.734c0,19.542 1.363,41.621 1.363,68.779l-0,51.192l-25.288,0.196Z" style="fill:#2a3647;fill-rule:nonzero;"/></svg>