<?xml version="1.0" encoding="UTF-8" standalone="no"?><!DOCTYPE svg PUBLIC "-//W3C//DTD SVG 1.1//EN" "http://www.w3.org/Graphics/SVG/1.1/DTD/svg11.dtd"><svg width="100%" height="100%" viewBox="0 0 88 67" version="1.1" xmlns="http://www.w3.org/2000/svg" xmlns:xlink="http://www.w3.org/1999/xlink" xml:space="preserve" xmlns:serif="http://www.serif.com/" style="fill-rule:evenodd;clip-rule:evenodd;stroke-linejoin:round;stroke-miterlimit:2;"><path d="M43.75,40.328c-0.977,0.001 -1.93,-0.311 -2.717,-0.89l-37.096,-27.374c-0.483,-0.357 -0.89,-0.805 -1.2,-1.318c-0.309,-0.514 -0.514,-1.084 -0.603,-1.677c-0.18,-1.198 0.124,-2.418 0.844,-3.392c0.721,-0.974 1.799,-1.623 2.998,-1.802c1.198,-0.18 2.42,0.124 3.394,0.844l34.38,25.343l34.38,-25.343c0.482,-0.357 1.031,-0.615 1.613,-0.76c0.583,-0.144 1.188,-0.173 1.781,-0.084c0.594,0.089 1.164,0.294 1.678,0.603c0.514,0.309 0.963,0.716 1.32,1.199c0.356,0.482 0.615,1.03 0.759,1.612c0.145,0.582 0.174,1.187 0.085,1.78c-0.089,0.593 -0.294,1.163 -0.603,1.677c-0.31,0.513 -0.717,0.961 -1.2,1.318l-37.096,27.374c-0.787,0.579 -1.739,0.891 -2.717,0.89Z" style="fill:#fff;fill-rule:nonzero;"/><path d="M43.75,64.28c-0.977,0.001 -1.93,-0.31 -2.717,-0.89l-37.096,-27.374c-0.975,-0.72 -1.623,-1.797 -1.803,-2.995c-0.18,-1.198 0.124,-2.418 0.844,-3.392c0.721,-0.974 1.799,-1.622 2.998,-1.802c1.198,-0.18 2.42,0.124 3.394,0.844l34.38,25.344l34.38,-25.344c0.974,-0.72 2.196,-1.024 3.394,-0.844c1.199,0.18 2.277,0.828 2.998,1.802c0.72,0.974 1.024,2.194 0.844,3.392c-0.18,1.198 -0.828,2.275 -1.803,2.995l-37.096,27.374c-0.787,0.58 -1.739,0.891 -2.717,0.89Z" style="fill:#fff;fill-rule:nonzero;"/></svg>