<?xml version="1.0" encoding="UTF-8" standalone="no"?><!DOCTYPE svg PUBLIC "-//W3C//DTD SVG 1.1//EN" "http://www.w3.org/Graphics/SVG/1.1/DTD/svg11.dtd"><svg width="100%" height="100%" viewBox="0 0 100 100" version="1.1" xmlns="http://www.w3.org/2000/svg" xmlns:xlink="http://www.w3.org/1999/xlink" xml:space="preserve" xmlns:serif="http://www.serif.com/" style="fill-rule:evenodd;clip-rule:evenodd;stroke-linejoin:round;stroke-miterlimit:2;"><path d="M50,55.306c-0.733,0.001 -1.447,-0.233 -2.037,-0.668l-27.823,-20.53c-0.362,-0.267 -0.667,-0.603 -0.899,-0.989c-0.232,-0.385 -0.386,-0.813 -0.453,-1.257c-0.135,-0.899 0.093,-1.814 0.633,-2.545c0.541,-0.73 1.349,-1.216 2.248,-1.351c0.899,-0.135 1.815,0.093 2.546,0.633l25.785,19.008l25.785,-19.008c0.362,-0.267 0.773,-0.461 1.21,-0.57c0.437,-0.108 0.89,-0.13 1.336,-0.063c0.445,0.067 0.873,0.22 1.258,0.452c0.386,0.232 0.722,0.538 0.99,0.899c0.267,0.362 0.461,0.773 0.57,1.21c0.108,0.436 0.13,0.89 0.063,1.335c-0.067,0.444 -0.221,0.872 -0.453,1.257c-0.232,0.386 -0.537,0.722 -0.899,0.989l-27.822,20.53c-0.591,0.435 -1.305,0.669 -2.038,0.668Z" style="fill:#fff;fill-rule:nonzero;"/><path d="M50,73.27c-0.733,0.001 -1.447,-0.233 -2.037,-0.668l-27.823,-20.53c-0.731,-0.54 -1.217,-1.348 -1.352,-2.246c-0.135,-0.899 0.093,-1.814 0.633,-2.544c0.541,-0.731 1.349,-1.217 2.248,-1.352c0.899,-0.134 1.815,0.093 2.546,0.633l25.785,19.008l25.785,-19.008c0.731,-0.54 1.647,-0.767 2.546,-0.633c0.899,0.135 1.708,0.621 2.248,1.352c0.54,0.73 0.768,1.645 0.633,2.544c-0.135,0.898 -0.621,1.706 -1.352,2.246l-27.822,20.53c-0.591,0.435 -1.305,0.669 -2.038,0.668Z" style="fill:#fff;fill-rule:nonzero;"/></svg>