<?xml version="1.0" encoding="UTF-8" standalone="no"?><!DOCTYPE svg PUBLIC "-//W3C//DTD SVG 1.1//EN" "http://www.w3.org/Graphics/SVG/1.1/DTD/svg11.dtd"><svg width="100%" height="100%" viewBox="0 0 100 100" version="1.1" xmlns="http://www.w3.org/2000/svg" xmlns:xlink="http://www.w3.org/1999/xlink" xml:space="preserve" xmlns:serif="http://www.serif.com/" style="fill-rule:evenodd;clip-rule:evenodd;stroke-linejoin:round;stroke-miterlimit:2;"><g><clipPath id="_clip1"><rect x="19.861" y="38.957" width="62.5" height="23.284"/></clipPath><g clip-path="url(#_clip1)"><path d="M78.936,62.241l-55.651,0c-0.908,0 -1.779,-0.363 -2.421,-1.01c-0.642,-0.647 -1.003,-1.524 -1.003,-2.439c-0,-0.915 0.361,-1.793 1.003,-2.44c0.642,-0.646 1.513,-1.01 2.421,-1.01l55.651,0c0.908,0 1.78,0.364 2.422,1.01c0.642,0.647 1.003,1.525 1.003,2.44c-0,0.915 -0.361,1.792 -1.003,2.439c-0.642,0.647 -1.514,1.01 -2.422,1.01Z" style="fill:#fff;fill-rule:nonzero;"/><path d="M78.936,45.856l-55.651,-0c-0.908,-0 -1.779,-0.364 -2.421,-1.01c-0.642,-0.647 -1.003,-1.525 -1.003,-2.44c-0,-0.915 0.361,-1.792 1.003,-2.439c0.642,-0.647 1.513,-1.01 2.421,-1.01l55.651,-0c0.908,-0 1.78,0.363 2.422,1.01c0.642,0.647 1.003,1.524 1.003,2.439c-0,0.915 -0.361,1.793 -1.003,2.44c-0.642,0.646 -1.514,1.01 -2.422,1.01Z" style="fill:#fff;fill-rule:nonzero;"/></g></g></svg>