<?xml version="1.0" encoding="UTF-8" standalone="no"?><!DOCTYPE svg PUBLIC "-//W3C//DTD SVG 1.1//EN" "http://www.w3.org/Graphics/SVG/1.1/DTD/svg11.dtd"><svg width="100%" height="100%" viewBox="0 0 88 34" version="1.1" xmlns="http://www.w3.org/2000/svg" xmlns:xlink="http://www.w3.org/1999/xlink" xml:space="preserve" xmlns:serif="http://www.serif.com/" style="fill-rule:evenodd;clip-rule:evenodd;stroke-linejoin:round;stroke-miterlimit:2;"><g><clipPath id="_clip1"><rect x="3.564" y="1.942" width="83.333" height="31.046"/></clipPath><g clip-path="url(#_clip1)"><path d="M82.332,32.988l-74.201,0c-1.211,0 -2.373,-0.484 -3.229,-1.347c-0.856,-0.862 -1.338,-2.032 -1.338,-3.252c0,-1.22 0.482,-2.39 1.338,-3.252c0.856,-0.863 2.018,-1.348 3.229,-1.348l74.201,0c1.21,0 2.372,0.485 3.228,1.348c0.857,0.862 1.338,2.032 1.338,3.252c-0,1.22 -0.481,2.39 -1.338,3.252c-0.856,0.863 -2.017,1.347 -3.228,1.347Z" style="fill:#ff7a00;fill-rule:nonzero;"/><path d="M82.332,11.141l-74.201,0c-1.211,0 -2.373,-0.484 -3.229,-1.347c-0.856,-0.863 -1.338,-2.032 -1.338,-3.252c0,-1.22 0.482,-2.39 1.338,-3.252c0.856,-0.863 2.018,-1.348 3.229,-1.348l74.201,0c1.21,0 2.372,0.485 3.228,1.348c0.857,0.862 1.338,2.032 1.338,3.252c-0,1.22 -0.481,2.39 -1.338,3.252c-0.856,0.863 -2.017,1.347 -3.228,1.347Z" style="fill:#ff7a00;fill-rule:nonzero;"/></g></g></svg>