<?xml version="1.0" encoding="UTF-8" standalone="no"?><!DOCTYPE svg PUBLIC "-//W3C//DTD SVG 1.1//EN" "http://www.w3.org/Graphics/SVG/1.1/DTD/svg11.dtd"><svg width="100%" height="100%" viewBox="0 0 80 80" version="1.1" xmlns="http://www.w3.org/2000/svg" xmlns:xlink="http://www.w3.org/1999/xlink" xml:space="preserve" xmlns:serif="http://www.serif.com/" style="fill-rule:evenodd;clip-rule:evenodd;stroke-linejoin:round;stroke-miterlimit:2;"><g><clipPath id="_clip1"><rect x="4.167" y="14.583" width="70.833" height="50"/></clipPath><g clip-path="url(#_clip1)"><path d="M39.583,34.393c0.831,-0.001 1.641,0.256 2.31,0.736l31.535,22.641c0.41,0.295 0.757,0.666 1.02,1.091c0.263,0.425 0.437,0.896 0.513,1.387c0.153,0.991 -0.105,2 -0.718,2.806c-0.612,0.805 -1.529,1.341 -2.548,1.49c-1.019,0.148 -2.057,-0.102 -2.886,-0.698l-29.226,-20.962l-29.226,20.962c-0.41,0.295 -0.876,0.508 -1.371,0.628c-0.495,0.12 -1.01,0.143 -1.514,0.07c-0.505,-0.074 -0.99,-0.243 -1.427,-0.499c-0.437,-0.256 -0.818,-0.593 -1.122,-0.991c-0.303,-0.4 -0.522,-0.852 -0.645,-1.334c-0.124,-0.481 -0.148,-0.982 -0.072,-1.472c0.075,-0.491 0.25,-0.962 0.513,-1.387c0.263,-0.425 0.609,-0.796 1.02,-1.091l31.535,-22.641c0.669,-0.48 1.478,-0.737 2.309,-0.736Z" style="fill:#fff;fill-rule:nonzero;"/><path d="M39.583,14.581c0.831,-0.001 1.641,0.256 2.31,0.736l31.535,22.641c0.829,0.596 1.38,1.487 1.533,2.478c0.153,0.991 -0.105,2 -0.718,2.806c-0.612,0.805 -1.529,1.341 -2.548,1.49c-1.019,0.148 -2.057,-0.103 -2.886,-0.698l-29.226,-20.962l-29.226,20.962c-0.828,0.595 -1.866,0.846 -2.885,0.698c-1.019,-0.149 -1.936,-0.685 -2.549,-1.49c-0.612,-0.806 -0.87,-1.815 -0.717,-2.806c0.152,-0.991 0.704,-1.882 1.533,-2.478l31.535,-22.641c0.669,-0.48 1.478,-0.737 2.309,-0.736Z" style="fill:#fff;fill-rule:nonzero;"/></g></g></svg>