<?xml version="1.0" encoding="UTF-8" standalone="no"?><!DOCTYPE svg PUBLIC "-//W3C//DTD SVG 1.1//EN" "http://www.w3.org/Graphics/SVG/1.1/DTD/svg11.dtd"><svg width="100%" height="100%" viewBox="0 0 134 134" version="1.1" xmlns="http://www.w3.org/2000/svg" xmlns:xlink="http://www.w3.org/1999/xlink" xml:space="preserve" xmlns:serif="http://www.serif.com/" style="fill-rule:evenodd;clip-rule:evenodd;stroke-linejoin:round;stroke-miterlimit:2;"><g><clipPath id="_clip1"><rect x="31.25" y="41.667" width="70.833" height="50"/></clipPath><g clip-path="url(#_clip1)"><path d="M66.667,61.478c0.831,-0.001 1.64,0.257 2.309,0.736l31.536,22.641c0.41,0.295 0.756,0.666 1.019,1.091c0.264,0.425 0.438,0.897 0.514,1.387c0.152,0.991 -0.106,2 -0.718,2.806c-0.613,0.805 -1.529,1.341 -2.549,1.49c-1.018,0.149 -2.057,-0.102 -2.885,-0.698l-29.226,-20.962l-29.226,20.962c-0.411,0.295 -0.877,0.508 -1.372,0.628c-0.495,0.12 -1.009,0.144 -1.514,0.07c-0.505,-0.074 -0.989,-0.243 -1.426,-0.499c-0.438,-0.255 -0.819,-0.592 -1.122,-0.991c-0.303,-0.399 -0.523,-0.852 -0.646,-1.334c-0.123,-0.481 -0.148,-0.982 -0.072,-1.472c0.076,-0.49 0.25,-0.962 0.513,-1.387c0.263,-0.425 0.61,-0.796 1.02,-1.091l31.536,-22.641c0.668,-0.479 1.478,-0.737 2.309,-0.736Z" style="fill:#ff3d00;fill-rule:nonzero;"/><path d="M66.667,41.666c0.831,-0.001 1.64,0.257 2.309,0.736l31.536,22.641c0.828,0.596 1.38,1.487 1.533,2.478c0.152,0.991 -0.106,2 -0.718,2.806c-0.613,0.805 -1.529,1.341 -2.549,1.49c-1.018,0.148 -2.057,-0.102 -2.885,-0.698l-29.226,-20.962l-29.226,20.962c-0.829,0.596 -1.867,0.846 -2.886,0.698c-1.019,-0.149 -1.936,-0.685 -2.548,-1.49c-0.613,-0.806 -0.871,-1.815 -0.718,-2.806c0.153,-0.991 0.704,-1.882 1.533,-2.478l31.536,-22.641c0.668,-0.479 1.478,-0.737 2.309,-0.736Z" style="fill:#ff3d00;fill-rule:nonzero;"/></g></g></svg>